<svg width="0" height="0" class="hidden">
  <symbol xmlns="http://www.w3.org/2000/svg" viewBox="0 0 56.32 60" id="Timer">
    <title>Timer</title>
    <path d="M22.7 9.3a24.36 24.36 0 0 1 5.17-.76v1.21a1 1 0 0 0 2.07 0V8.49a24.41 24.41 0 0 1 10.33 2.77l-.62 1a1 1 0 0 0 1.79 1l.62-1a25 25 0 0 1 7.63 7.58l-1.13.65a1 1 0 0 0 1 1.79l1.13-.66A24.55 24.55 0 0 1 53.62 32h-1.38a1 1 0 0 0 0 2.07h1.38a24.57 24.57 0 0 1-2.78 10.45l-1.23-.71a1 1 0 1 0-1.11 1.74h.07l1.23.7A24.88 24.88 0 0 1 42.14 54l-.72-1.25a1 1 0 0 0-1.79 1l.73 1.25a24.65 24.65 0 0 1-10.48 2.86v-1.42a1 1 0 1 0-2.06 0v1.45a24.56 24.56 0 0 1-5.12-.77 1 1 0 0 0-1.22.81 1.05 1.05 0 0 0 .69 1.19 26.78 26.78 0 0 0 26.26-44.29l2.17-2.17.86.86a1 1 0 0 0 1.45 0l3.09-3.1A1 1 0 0 0 56 9l-3.26-3.35a1 1 0 0 0-1.46 0l-3.1 3.11a1 1 0 0 0 0 1.45l1 1L47 13.37a26.69 26.69 0 0 0-14.44-6.72v-1h2.75a1 1 0 0 0 1-1V1a1 1 0 0 0-1-1H23.22a1 1 0 0 0-1 1v3.62a1 1 0 0 0 1 1H26v.91a25.87 25.87 0 0 0-3.8.68 1.06 1.06 0 1 0 .5 2.09zM52 7.9l1.84 1.84-1.65 1.63-1.84-1.84zM24.25 2.07h10v1.52h-10zM28 5.65h2.45v.79H28z"></path>
    <path d="M14.81 16.61h5.67a1 1 0 0 0 0-2.07h-5.67a1 1 0 0 0 0 2.07zm-4.44 7.04h9.53a1 1 0 0 0 0-2.07h-9.53a1 1 0 1 0 0 2.07zM6 30.69h14.2a1 1 0 0 0 0-2.07H6a1 1 0 1 0 0 2.07zm-5 7.03h19.49a1 1 0 0 0 0-2.07H1a1 1 0 0 0 0 2.07zm19.5 6a1 1 0 0 0-1-1H6.4a1 1 0 1 0 0 2.07h13.06a1 1 0 0 0 1.04-1.07zm-5.69 8.08h5.67a1 1 0 0 0 0-2.07h-5.67a1 1 0 0 0 0 2.07zm14.07-15.08a3.7 3.7 0 0 0 2.2-.73l.11-.09 10.6-10.25A1 1 0 0 0 40.67 24l-12.73 5.43-1 .45a.72.72 0 0 0-.21.12 3.72 3.72 0 0 0 2.21 6.72zm-1.64-4a1.64 1.64 0 0 1 .57-1l8.48-3.65-6.49 6.28a1.65 1.65 0 0 1-2.56-1.62z"></path>
  </symbol>
  <symbol xmlns="http://www.w3.org/2000/svg" viewBox="0 0 30 38.91" id="chevron_der">
    <title>chevron_der</title>
    <path d="M4.5 38.91A4.49 4.49 0 0 1 2 30.72l15.76-10.87L1.83 8.11A4.5 4.5 0 0 1 7.16.87l21 15.5a4.48 4.48 0 0 1-.12 7.31L7 38.12a4.45 4.45 0 0 1-2.5.79z" fill="#898989"></path>
  </symbol>
  <symbol xmlns="http://www.w3.org/2000/svg" viewBox="0 0 38.91 30" id="chevron_arriba">
    <title>chevron_arriba</title>
    <path d="M38.91 25.5a4.49 4.49 0 0 1-8.19 2.55L19.85 12.24 8.11 28.17a4.5 4.5 0 0 1-7.24-5.33l15.5-21a4.48 4.48 0 0 1 7.31.16l14.44 21a4.45 4.45 0 0 1 .79 2.5z" fill="#898989"></path>
  </symbol>
  <symbol xmlns="http://www.w3.org/2000/svg" viewBox="0 0 64.51 46.76" id="video_games">
    <title>video_games</title>
    <path d="M7.56 46.76a7.34 7.34 0 0 1-3.71-1C1.12 44.11-.27 41.07 0 37.38l1.58-14.21v-.12L1.8 22C3.42 13.51 5 5.52 12.61 1.28l.65-.36c2.32-1.29 6.61-1 8.77-.48l7 1.61a15 15 0 0 0 6.47.07L43.91.39c2.19-.46 5-.79 7.38.67l.89.46C59.49 6 61.36 13.61 62.92 22.37l1.57 13a.75.75 0 0 1 0 .26c-.34 6.69-2.92 9.33-5 10.37a6.05 6.05 0 0 1-6-.2 36.81 36.81 0 0 1-3.61-3.26c-2.48-2.39-5.57-5.38-8.08-6.84-3.7-2.16-15.46-1.85-18.37-.39-1.72.85-4.55 3.49-7 5.82A53.47 53.47 0 0 1 11 45.75a6.12 6.12 0 0 1-3.44 1.01zm-3-23.21L3 37.67c-.29 3.38 1.35 4.88 2.35 5.47a3.83 3.83 0 0 0 3.93.12 51.61 51.61 0 0 0 5-4.38c2.78-2.58 5.65-5.26 7.76-6.31 3.72-1.86 16.51-2.26 21.22.49 2.82 1.64 6.06 4.77 8.66 7.28a37 37 0 0 0 3.22 2.93 3.09 3.09 0 0 0 2.93 0c1.93-.95 3.12-3.69 3.35-7.71L60 22.82c-1.41-8-3.1-14.91-9.26-18.69l-.88-.47c-1.56-1-3.54-.7-5.29-.34l-8.4 1.74a18.09 18.09 0 0 1-7.8-.06l-7-1.62c-2.11-.48-5.35-.53-6.64.18l-.64.36C7.63 7.46 6.3 14.44 4.75 22.53z"></path>
    <circle cx="16.77" cy="14.2" r="4.22"></circle>
    <circle cx="48.96" cy="11" r="1.79"></circle>
    <circle cx="32.72" cy="14.25" r="3.24"></circle>
    <circle cx="41.33" cy="24.94" r="4.08"></circle>
    <circle cx="48.96" cy="17.87" r="1.79"></circle>
    <circle cx="52.39" cy="14.27" r="1.79"></circle>
    <circle cx="45.53" cy="14.27" r="1.79"></circle>
    <path d="M28.47 23.19h-2.98v-2.97h-2.28v2.97h-2.98v2.29h2.98v2.98h2.28v-2.98h2.98v-2.29z"></path>
  </symbol>
  <symbol xmlns="http://www.w3.org/2000/svg" viewBox="0 0 30 38.92" id="chevron_izq">
    <title>chevron_izq</title>
    <path d="M25.5 38.92a4.49 4.49 0 0 1-2.66-.92l-21-15.49A4.49 4.49 0 0 1 2 15.23L23 .79a4.49 4.49 0 1 1 5.09 7.4L12.24 19.06l15.93 11.75a4.49 4.49 0 0 1-2.67 8.11z" fill="#898989"></path>
  </symbol>
  <symbol xmlns="http://www.w3.org/2000/svg" viewBox="0 0 38.92 30" id="chevron_abajo">
    <title>chevron_abajo</title>
    <path d="M38.92 4.5A4.49 4.49 0 0 1 38 7.16l-15.49 21a4.49 4.49 0 0 1-7.32-.12L.79 7a4.49 4.49 0 1 1 7.4-5l10.87 15.76L30.81 1.83a4.49 4.49 0 0 1 8.11 2.67z" fill="#898989"></path>
  </symbol>
  <symbol xmlns="http://www.w3.org/2000/svg" viewBox="0 0 147.93 63.46" id="six_people">
    <title>six_people</title>
    <path d="M146.65 47.24a4.34 4.34 0 0 0 .38-5.73l-5.58-7.22a2 2 0 0 0-1.58-.78H138a5.33 5.33 0 1 0-6.48 0h-.61l-4.08-2.07-7.2-14.68a2 2 0 0 0-1.79-1.12h-7.59a6.79 6.79 0 1 0-.93 0h-8.86a2 2 0 0 0-1.81 1.15l-1.16 2.45-1.4-5.1a2 2 0 0 0-1.93-1.48h-5.58a6.78 6.78 0 1 0-6.74 0H76a2 2 0 0 0-2 1.59l-3.83 18-2.9 1.29h-.67a5.33 5.33 0 1 0-6.48 0H58.5a2 2 0 0 0-1.65.87l-.94 1.36a7.7 7.7 0 0 0-.9-2.4l-7.44-15.21a1 1 0 0 0-.9-.56h-7.25a6.75 6.75 0 1 0-1.49 0H29.4a1 1 0 0 0-.9.57L26.21 23l-2.09-7.64a1 1 0 0 0-1-.74h-18a1 1 0 0 0-1 .79l-4 18.81c-.33 1.31-.31 4 2.15 4.93h.1a4.46 4.46 0 0 0 3.65-.37 3.55 3.55 0 0 0 1.46-1.94v22.38a3.62 3.62 0 0 0 6.67 1.93 3.71 3.71 0 0 0 6.82-2V33.28L21.3 35a3.91 3.91 0 0 0 6.7 2l-3 9.77a1 1 0 0 0 .15.88A1 1 0 0 0 26 48h6v11.71A3.35 3.35 0 0 0 38.37 61a3.72 3.72 0 0 0 7.05-1.67V47.88h4.81a.61.61 0 0 0 .13 0 4.14 4.14 0 0 0 6.74.84v10.35a4.1 4.1 0 0 0 6.71 3.15 4.55 4.55 0 0 0 2.78.94 3.93 3.93 0 0 0 3.93-3.92V41.47l6.91-3.65v20.71a4.63 4.63 0 0 0 7.7 3.47A4.74 4.74 0 0 0 93 58.43V37.21a4.94 4.94 0 0 0 3.19 1.16 5.23 5.23 0 0 0 1.19-.14l-2.3 7.44a2 2 0 0 0 .31 1.78 2 2 0 0 0 1.61.81h5V59a4.37 4.37 0 0 0 7.52 3 4.75 4.75 0 0 0 8-3.4V48.11h3.85a2 2 0 0 0 1.94-2.49l-1.77-7 5.8 2.63L125 52.44a2 2 0 0 0 .41 1.68 2 2 0 0 0 1.55.74h.7v4.33a4.27 4.27 0 0 0 6.92 3.35 4.42 4.42 0 0 0 7.12-3.48v-4.2h.39a2 2 0 0 0 1.95-2.46l-.92-3.94a3.62 3.62 0 0 0 .47 0 4.33 4.33 0 0 0 3.06-1.22zm-15.22-17.93a3.33 3.33 0 1 1 3.33 3.33 3.33 3.33 0 0 1-3.33-3.33zM105 8.88a4.79 4.79 0 1 1 4.79 4.78A4.79 4.79 0 0 1 105 8.88zm-24.57-2.1a4.78 4.78 0 1 1 4.78 4.79 4.79 4.79 0 0 1-4.78-4.79zM60.1 29.31a3.33 3.33 0 1 1 3.33 3.33 3.33 3.33 0 0 1-3.33-3.33zm-9.51 14.22a2.25 2.25 0 0 0-.12.21l-2.11-8.32 1 2.19a4 4 0 0 0 2.22 2 3.44 3.44 0 0 0 1.66.09zM33.93 10.9a4.75 4.75 0 1 1 4.74 4.74 4.75 4.75 0 0 1-4.74-4.74zm10.49 35a1 1 0 0 0-1 1v12.45a1.72 1.72 0 0 1-3.44.06l-.5-12.86a1 1 0 0 0-1-1 1 1 0 0 0-1 .94l-.84 13.31a1.36 1.36 0 0 1-2.71-.09V47a1 1 0 0 0-1-1h-5.62l6.57-21.3a1 1 0 0 0-.59-1.23A1 1 0 0 0 32 24l-5.11 11.09a1.91 1.91 0 0 1-3.62-.47L21 21.55a1 1 0 0 0-2 .17v37.4a1.71 1.71 0 0 1-3.42 0l-.46-19.4a1 1 0 0 0-1-1 1 1 0 0 0-1 1l-.38 19.48a1.62 1.62 0 0 1-3.23 0V22a1 1 0 0 0-.93-1 1 1 0 0 0-1.06.87L5.64 36.18a1.71 1.71 0 0 1-.67 1 2.57 2.57 0 0 1-2 .12c-1.33-.54-.88-2.46-.85-2.57L6 16.64h16.39L25 26.15a1 1 0 0 0 .88.73 1 1 0 0 0 1-.57L30 19.6h16l7.2 14.68c.29.5 1.27 2.63.46 3.14a2 2 0 0 1-1.53.28 2 2 0 0 1-1-.92l-5.8-13.23a1 1 0 0 0-1.88.65L49 45.88zm97.69 7h-2.39v6.2a2.41 2.41 0 0 1-4.81.06l-.15-6.26-.56 6.53a2.26 2.26 0 0 1-4.52-.2v-6.37H127l2.7-12.74-8.26-3.75L115.57 23l5.85 23.07h-5.85v12.59a2.74 2.74 0 0 1-5.48.1l-.49-12.95-.86 13.37A2.37 2.37 0 0 1 104 59V46.26h-7l7-22.77-5.16 11.18a2.93 2.93 0 0 1-5.55-.73L91 20.79v37.64a2.73 2.73 0 0 1-5.45.07L85.07 39l-.38 19.61a2.63 2.63 0 0 1-5.26 0V21.09l-1.9 14.42-9 4.76v19a1.93 1.93 0 0 1-1.93 1.92 2.54 2.54 0 0 1-2.54-2.45l-.36-9.5-.41 9.95a2.09 2.09 0 0 1-2.09 2 2.08 2.08 0 0 1-2.09-2.09v-17l-3.3 5a2.16 2.16 0 0 1-1.79 1 2.12 2.12 0 0 1-1.11-.31 2.15 2.15 0 0 1-.66-3.09l6.26-9.15h9.26L72 33.64l4-19h18.16L97 25l3.47-7.34h17.38l7.49 15.29 5.1 2.58h9.44l5.58 7.22a2.32 2.32 0 0 1-.21 3.08 2.28 2.28 0 0 1-1.63.67 2.32 2.32 0 0 1-1.92-1l-2-2.86z"></path>
    <path d="M14.26 14.56a6.75 6.75 0 1 0-6.75-6.75 6.75 6.75 0 0 0 6.75 6.75zm0-11.49a4.75 4.75 0 1 1-4.75 4.74 4.74 4.74 0 0 1 4.75-4.74z"></path>
  </symbol>
  <symbol xmlns="http://www.w3.org/2000/svg" viewBox="0 0 60 60" id="spa">
    <title>spa</title>
    <path d="M10.51 49.49h8.98l-8.98-8.98v8.98zm0-38.98v8.98l8.98-8.98h-8.98zm38.98 0h-8.98l8.98 8.98v-8.98zm0 38.98v-8.98l-8.98 8.98h8.98z"></path>
    <path d="M51.21 21.21V8.79H38.79L30 0l-8.79 8.79H8.79v12.42L0 30l8.79 8.79v12.42h12.42L30 60l8.79-8.79h12.42V38.79L60 30zm-1.72-10.7v9l-9-9zm-39 0h9l-9 9zm0 39v-9l9 9zm39 0h-9l9-9zm0-11.42l-11.42 11.4-1.72 1.72L30 57.56l-6.35-6.35-1.72-1.72-11.42-11.42-1.72-1.72L2.44 30l6.35-6.35 1.72-1.72 11.42-11.42 1.72-1.72L30 2.44l6.35 6.35 1.72 1.72 11.42 11.42 1.72 1.73L57.56 30l-6.35 6.34z"></path>
    <path d="M42.57 34.83L47.4 30l-4.83-4.83h-7.68v-7.68L30 12.6l-5.08 5.08v7.49h-7.49L12.6 30l4.83 4.83h7.49v7.49L30 47.4l4.89-4.89v-7.68h7.68z"></path>
    <path d="M43.78 23.94v-7.66h-7.66L30 10.16l-6.12 6.12H16v7.85L10.16 30 16 35.87v7.85h7.85L30 49.84l6.12-6.12h7.66v-7.66L49.84 30zm-7.16-4.72V18h5.44v5.43h-5.44zM17.76 22.4V18h5.43v5.43h-5.43zm5.43 18.19V42h-5.43v-5.44h5.43zm11.7-5.76v7.68L30 47.4l-5.08-5.08v-7.49h-7.49L12.6 30l4.83-4.83h7.49v-7.49L30 12.6l4.89 4.89v7.68h7.68L47.4 30l-4.83 4.83zM42.06 42h-5.44v-5.44h5.44V42z"></path>
    <path d="M36.63 27.09v-3.71h-3.71L30 20.44l-3 2.94h-3.75v3.79L20.42 30l2.83 2.82v3.8H27l3 2.94 2.94-2.94h3.71v-3.71L39.54 30zm-3.21-.77V25.1h1.48v1.48h-1.48zM25 25.44v-.34h1.48v1.48H25zm1.48 8.15v1.3H25v-1.48h1.48zm8.44 1.3h-1.5v-1.48h1.48v1.48zm.51-3.21H31.7v3.72L30 37.11l-1.8-1.79v-3.64h-3.65L22.86 30l1.69-1.69h3.63v-3.63l1.8-1.8 1.72 1.71v3.72h3.71L37.1 30z"></path>
  </symbol>
  <symbol xmlns="http://www.w3.org/2000/svg" viewBox="0 0 56 62" id="two-people">
    <title>two-people</title>
    <path d="M14.26 13.49a6.75 6.75 0 1 0-6.75-6.74 6.75 6.75 0 0 0 6.75 6.74zm0-11.49a4.75 4.75 0 1 1-4.75 4.75A4.75 4.75 0 0 1 14.26 2z"></path>
    <path d="M55 32.28l-7.43-15.19a1 1 0 0 0-.9-.56h-7.25a6.75 6.75 0 1 0-1.49 0H29.4a1 1 0 0 0-.9.57L26.21 22l-2.09-7.64a1 1 0 0 0-1-.74h-18a1 1 0 0 0-1 .8l-4 18.8c-.33 1.31-.31 4 2.15 4.93h.1a4.42 4.42 0 0 0 3.65-.37 3.57 3.57 0 0 0 1.46-1.93v22.3a3.62 3.62 0 0 0 6.67 1.93 3.71 3.71 0 0 0 6.82-2V32.21l.3 1.69a3.91 3.91 0 0 0 6.71 2l-3 9.77A1 1 0 0 0 26 47h6v11.64A3.35 3.35 0 0 0 38.37 60a3.72 3.72 0 0 0 7.05-1.67V46.82h4.81a1 1 0 0 0 .79-.39 1 1 0 0 0 .18-.86l-2.84-11.22 1 2.19a4 4 0 0 0 2.22 2 3.89 3.89 0 0 0 3.16-.45c2.11-1.34 1.14-4.32.26-5.81zM33.93 9.83a4.75 4.75 0 1 1 4.74 4.74 4.75 4.75 0 0 1-4.74-4.74zm19.78 26.52a2 2 0 0 1-1.53.28 2 2 0 0 1-1-.92l-5.85-13.22a1 1 0 0 0-1.88.65L49 44.82h-4.58a1 1 0 0 0-1 1v12.46a1.72 1.72 0 0 1-3.44.07l-.5-12.87a1 1 0 0 0-1-1 1 1 0 0 0-1 .93l-.85 13.28a1.36 1.36 0 0 1-2.71-.09V46a1 1 0 0 0-1-1h-5.61l6.57-21.33a1 1 0 0 0-1.88-.75L26.89 34a1.91 1.91 0 0 1-3.62-.48L21 20.49a1 1 0 0 0-1.07-.83 1 1 0 0 0-.92 1v37.39a1.71 1.71 0 0 1-3.42 0l-.47-19.35a1 1 0 0 0-1-1 1 1 0 0 0-1 1l-.38 19.48a1.62 1.62 0 0 1-3.23 0V21a1 1 0 0 0-.93-1 1 1 0 0 0-1.06.86L5.64 35.11a1.68 1.68 0 0 1-.67 1 2.57 2.57 0 0 1-2 .13c-1.33-.54-.88-2.47-.85-2.58L6 15.57h16.39L25 25.08a1 1 0 0 0 .88.73 1 1 0 0 0 1-.56L30 18.53h16l7.2 14.69c.34.5 1.32 2.63.51 3.13z"></path>
  </symbol>
  <symbol xmlns="http://www.w3.org/2000/svg" viewBox="0 0 66.77 63" id="hair_dry">
    <title>hair_dry</title>
    <path d="M66.77 18.13A18.15 18.15 0 0 0 48.64 0a1.33 1.33 0 0 0-.28 0L8.05 7.66 2.21 4.53A1.5 1.5 0 0 0 0 5.85v25.66a1.5 1.5 0 0 0 .73 1.28 1.52 1.52 0 0 0 .77.21 1.5 1.5 0 0 0 .71-.18l6.42-3.44 27.84 4.8v20.5a8.33 8.33 0 0 0 16.65 0v-19a18.15 18.15 0 0 0 13.65-17.55zM3 8.35l3.72 2V27L3 29zm47.12 46.33a5.33 5.33 0 0 1-10.65 0V34.75L45.79 36a1.33 1.33 0 0 0 .28 0H47l1.4.24a1.15 1.15 0 0 0 .26 0c.5 0 1 0 1.48-.08zM51.39 33h-4.16L9.72 26.53V10.39L48.78 3a15.13 15.13 0 0 1 2.61 30z"></path>
    <path d="M50.65 10.11a8 8 0 1 0 8 8 8 8 0 0 0-8-8zm0 13.05a5 5 0 1 1 5-5 5 5 0 0 1-5 5z"></path>
  </symbol>
  <symbol xmlns="http://www.w3.org/2000/svg" viewBox="0 0 98.09 63.46" id="four_people">
    <title>four_people</title>
    <path d="M96.8 47.24a4.33 4.33 0 0 0 .38-5.73l-5.58-7.22a2 2 0 0 0-1.6-.78h-1.85a5.33 5.33 0 1 0-6.48 0h-.61L77 31.44l-7.21-14.68A2 2 0 0 0 68 15.64h-7.6a6.78 6.78 0 1 0-.93 0h-8.86a2 2 0 0 0-1.81 1.15l-1.16 2.45-1.4-5.1a2 2 0 0 0-1.93-1.48h-5.58a6.79 6.79 0 1 0-6.73 0h-5.82a2 2 0 0 0-1.95 1.59l-3.84 18-2.9 1.29h-.67a5.33 5.33 0 1 0-6.48 0H8.65a2 2 0 0 0-1.65.84L.74 43.53a4.16 4.16 0 0 0 6.51 5.16v10.38A4.1 4.1 0 0 0 14 62.22a4.57 4.57 0 0 0 2.78.94 3.93 3.93 0 0 0 3.93-3.92V41.47l6.91-3.65v20.71A4.63 4.63 0 0 0 35.28 62a4.75 4.75 0 0 0 7.87-3.56V37.21a4.91 4.91 0 0 0 3.18 1.16 5.17 5.17 0 0 0 1.19-.14l-2.29 7.44a2 2 0 0 0 1.91 2.59h5V59a4.36 4.36 0 0 0 7.51 3 4.75 4.75 0 0 0 8-3.4V48.11h3.86a2 2 0 0 0 1.93-2.49l-1.76-7 5.79 2.63-2.29 11.19a2 2 0 0 0 .4 1.68 2 2 0 0 0 1.55.74h.7v4.33a4.28 4.28 0 0 0 6.93 3.35 4.41 4.41 0 0 0 7.11-3.48v-4.2h.4a2 2 0 0 0 1.56-.76 2 2 0 0 0 .38-1.7l-.92-3.94a3.7 3.7 0 0 0 .47 0 4.31 4.31 0 0 0 3.04-1.22zM84.91 26a3.33 3.33 0 1 1-3.33 3.33A3.33 3.33 0 0 1 84.91 26zM55.16 8.88a4.78 4.78 0 1 1 4.78 4.78 4.78 4.78 0 0 1-4.78-4.78zm-24.58-2.1a4.79 4.79 0 1 1 4.78 4.79 4.79 4.79 0 0 1-4.78-4.79zM13.58 26a3.33 3.33 0 1 1-3.33 3.33A3.33 3.33 0 0 1 13.58 26zm78.69 26.86h-2.4v6.2a2.4 2.4 0 0 1-4.8.06l-.16-6.26-.56 6.53a2.26 2.26 0 0 1-4.52-.2v-6.33h-2.7l2.7-12.74-8.25-3.75L65.72 23l5.86 23.07h-5.86v12.59a2.74 2.74 0 0 1-5.47.1l-.5-12.95-.86 13.37a2.37 2.37 0 0 1-4.73-.18V46.26h-7l7-22.77L49 34.67a2.94 2.94 0 0 1-5.56-.73l-2.29-13.15v37.64a2.73 2.73 0 0 1-5.46.07L35.22 39l-.38 19.61a2.63 2.63 0 0 1-5.26 0V21.09l-1.9 14.42-9 4.76v19a1.92 1.92 0 0 1-1.93 1.92 2.55 2.55 0 0 1-2.54-2.45l-.36-9.5-.41 9.95a2.09 2.09 0 0 1-2.09 2 2.09 2.09 0 0 1-2.09-2.09v-17l-3.3 5a2.15 2.15 0 0 1-2.9.64 2.15 2.15 0 0 1-.66-3.09l6.26-9.15h9.26l4.23-1.87 4-19h18.16L47.14 25l3.47-7.34H68l7.49 15.29 5.1 2.58H90l5.58 7.22a2.33 2.33 0 0 1-.2 3.08 2.29 2.29 0 0 1-1.64.67 2.33 2.33 0 0 1-1.92-1l-2-2.86z"
      fill="#898989"></path>
  </symbol>
  <symbol xmlns="http://www.w3.org/2000/svg" viewBox="0 0 59.88 60" id="Size">
    <title>Size</title>
    <path d="M2.58 13.64h3.46v20H2.58z"></path>
    <path d="M0 14.9l4.31-7.46 4.31 7.46H0zm0 17.48l4.31 7.46 4.31-7.46H0zm26.24 21.59h20v3.46h-20z"></path>
    <path d="M44.98 51.38l7.46 4.31L44.98 60v-8.62zm-17.48 0l-7.46 4.31L27.5 60v-8.62zM12.6 0v47.29h47.28V0zm43.83 43.83h-9.9V27h-3.46v5.83H24v3.46h19.07v7.56h-27V3.46h27v13.39h3.46V3.46h9.9z"></path>
  </symbol>
  <symbol xmlns="http://www.w3.org/2000/svg" viewBox="0 0 103.77 60" id="double_size">
    <title>double_size</title>
    <path d="M97.73 13.64h3.46v20h-3.46z"></path>
    <path d="M103.77 14.9l-4.31-7.46-4.3 7.46h8.61zm0 17.48l-4.31 7.46-4.3-7.46h8.61zM17.53 53.97h60v3.46h-60z"></path>
    <path d="M18.79 51.38l-7.46 4.31L18.79 60v-8.62zm57.48 0l7.46 4.31L76.27 60v-8.62zM43.89 0v17.17h3.45V3.46h9.9v13.39h3.46V3.46h27.02v40.37H60.7v-7.56h19.05v-3.46H60.7v-5.83h-3.46v16.85h-9.9V25.6h-3.45v21.69h47.28V0H43.89z"></path>
    <path d="M47.29 0v17.17h-3.46V3.46h-9.9v13.39h-3.46V3.46H3.46v40.37h27.01v-7.56H11.42v-3.46h19.05v-5.83h3.46v16.85h9.9V25.6h3.46v21.69H0V0h47.29z"></path>
  </symbol>
  <symbol xmlns="http://www.w3.org/2000/svg" viewBox="0 0 35.73 60" id="aromaterapia">
    <title>aromaterapia</title>
    <path d="M29.15 28.17c.78-.43 1.81-1.06 3.15-2a13.4 13.4 0 0 0 2.79-2.51A2.88 2.88 0 0 0 32.84 19h-6.52a3.12 3.12 0 0 0 1.5-2.52c0-1.06-.86-1.71-1.69-2.34-1.28-1-2.12-1.73-2-3.2.26-2.89 3.1-4.59 3.13-4.6a1.09 1.09 0 1 0-1.09-1.88c-.15.09-3.84 2.26-4.2 6.28-.25 2.79 1.6 4.2 2.83 5.13a5.76 5.76 0 0 1 .82.69c-.08.41-.79.85-1.18 1a1.08 1.08 0 0 0-.61 1.44v.05h-2.9a3.12 3.12 0 0 0 1.5-2.52c0-1.06-.86-1.71-1.69-2.34-1.28-1-2.12-1.73-2-3.2.26-2.89 3.1-4.59 3.13-4.6a1.09 1.09 0 0 0 .39-1.49 1.08 1.08 0 0 0-1.48-.39c-.15.09-3.84 2.26-4.21 6.28-.25 2.79 1.61 4.2 2.84 5.13a5.76 5.76 0 0 1 .82.69c-.08.41-.79.85-1.18 1a1.08 1.08 0 0 0-.61 1.39v.05H15a4 4 0 0 0 2.07-3.2c0-1.23-1-2-2.1-2.83-1.47-1.11-3-2.26-2.78-4.57.36-4 4.3-6.36 4.33-6.38a1.09 1.09 0 0 0 .4-1.49 1.08 1.08 0 0 0-1.48-.43c-.2.11-4.95 2.9-5.41 8.07-.31 3.5 2.06 5.3 3.63 6.49a5.79 5.79 0 0 1 1.24 1.1c0 .87-1.34 1.58-1.81 1.76a1.08 1.08 0 0 0-.64 1.43v.05H2.89a2.88 2.88 0 0 0-2.61 1.61 2.83 2.83 0 0 0 .36 3 13.22 13.22 0 0 0 2.8 2.51c1.33.91 2.36 1.54 3.15 2A15.5 15.5 0 0 0 3 31.63a13.33 13.33 0 0 0-2.74 7.12v16A5.28 5.28 0 0 0 5.53 60H30.2a5.28 5.28 0 0 0 5.27-5.27v-16a13.28 13.28 0 0 0-2.72-7.1 15.9 15.9 0 0 0-3.6-3.46zm4.15 26.56a3.1 3.1 0 0 1-3.1 3.1H5.53a3.1 3.1 0 0 1-3.1-3.1v-16a11.45 11.45 0 0 1 2.3-5.85A14.1 14.1 0 0 1 9.41 29a1.11 1.11 0 0 0 .64-1.16 1.05 1.05 0 0 0-.92-.89c-.05 0-1.16-.27-4.47-2.53a11.18 11.18 0 0 1-2.34-2.09.69.69 0 0 1-.08-.73.71.71 0 0 1 .65-.41h30a.7.7 0 0 1 .65.41.67.67 0 0 1-.08.73 10.93 10.93 0 0 1-2.34 2.09c-3.31 2.26-4.42 2.52-4.4 2.52a1.07 1.07 0 0 0-1 .9 1.09 1.09 0 0 0 .6 1.16A14 14 0 0 1 31 32.92a11.37 11.37 0 0 1 2.3 5.83z"
      fill="#898989"></path>
  </symbol>
  <symbol xmlns="http://www.w3.org/2000/svg" viewBox="0 0 60.04 60" id="free_calls">
    <title>free_calls</title>
    <path d="M35.44 7.23C34 7 32.1 6.42 31.77 8.36s1.72 1.88 3.08 2.17c9.26 2 12.41 5.32 14 14.29a7.18 7.18 0 0 1 .11 1.25c.11 1.06.36 2 2 1.72A1.15 1.15 0 0 0 52 26.62c.11-.55 0-1.29.07-1.8 0-8.63-7.49-16.46-16.67-17.59zm.84 7.08c-1 0-1.91.11-2.27 1.14-.55 1.47.58 1.87 1.72 2.06 3.79.55 5.77 2.75 6.17 6.43a2.62 2.62 0 0 0 .44 1.25 1.44 1.44 0 0 0 1.25.47 1.76 1.76 0 0 0 .81-.22 2.53 2.53 0 0 0 .66-2.28c.07-4.14-4.7-9-8.78-8.85zM55.45 43.4c-1.87-1.47-3.93-2.79-5.84-4.15-3.92-2.65-7.52-2.86-10.42 1.43-1.66 2.43-4 2.54-6.36 1.47-6.65-2.9-11.75-7.42-14.76-14.07a8.29 8.29 0 0 1-.77-2.93c-.11-1.77.62-3.31 2.6-4.67 1.66-1.06 3.27-2.35 3.16-4.73-.14-3.13-7.86-13.52-10.94-14.66a6.1 6.1 0 0 0-3.78 0C1.17 3.48-1.76 9.21 1.06 16a80.88 80.88 0 0 0 5.4 10.73c8.78 14.69 21.71 25.41 38.38 32.42A17 17 0 0 0 48 60c4.67.07 10.1-4.37 11.68-8.71S58 45.46 55.45 43.4zM32.5 3.19c15 2.27 21.82 9.25 23.73 24v.36c.11 1.36-.15 3.13 1.65 3.13 1.58 0 1.65-1.14 1.65-2.28a5.82 5.82 0 0 1-.07-1.06C59.64 13.39 47.26.47 32.94 0c-1.14.21-3.34-.71-3.52 1.68 0 1.58 1.83 1.36 3.08 1.51z"
      fill="#898989" fill-rule="evenodd"></path>
  </symbol>
  <symbol xmlns="http://www.w3.org/2000/svg" viewBox="0 0 93.26 60" id="24hour_service">
    <title>24hour_service</title>
    <path d="M75.81 60H17.44C12.09 59.82.84 57.26 0 50.53a1 1 0 0 1 .24-.79A1 1 0 0 1 1 49.4h91.25a1 1 0 0 1 .76.34 1 1 0 0 1 .24.79c-.83 6.73-12.08 9.28-17.4 9.47zm-73.5-8.59c1.8 4.33 10.48 6.42 15.17 6.58H75.8c4.7-.17 13.35-2.26 15.15-6.58z"></path>
    <path d="M85.84 50.36a1 1 0 0 1-1-1v-1.19C84.85 37 80.74 27.7 73 21.18c-6.94-5.81-16.28-9-26.33-9-18.4 0-38.21 11.25-38.21 35.95v1.05l-1 .18h-1 1l-1-.12v-1.12c0-18.28 12.58-38 40.22-38 10.52 0 20.32 3.37 27.62 9.47 8.2 6.96 12.56 16.81 12.56 28.53v1.27a1 1 0 0 1-1.02.97z"></path>
    <path d="M77.62 42.64a1 1 0 0 1-1-.81C73.59 26 59.17 19 46.23 19a1 1 0 0 1 0-2C60 17 75.35 24.53 78.6 41.45a1 1 0 0 1-.79 1.17.65.65 0 0 1-.19.02zM46.63 9.81a4.82 4.82 0 0 1-4.71-4.91 4.71 4.71 0 1 1 9.42 0 4.82 4.82 0 0 1-4.71 4.91zm0-7.8a2.8 2.8 0 0 0-2.7 2.89 2.71 2.71 0 1 0 5.4 0 2.8 2.8 0 0 0-2.7-2.9z"></path>
  </symbol>
  <symbol xmlns="http://www.w3.org/2000/svg" viewBox="0 0 64.33 60" id="wifi">
    <title>wifi</title>
    <path d="M47.45 8.69a.57.57 0 0 0-.82-.08.59.59 0 0 0-.08.84 8 8 0 0 1 0 10.16.59.59 0 0 0 .08.84.51.51 0 0 0 .82-.08 9.17 9.17 0 0 0 0-11.68zm5.73-4.26a.75.75 0 0 0-.58-.27.7.7 0 0 0-.47.17A.76.76 0 0 0 52 5.4a14.43 14.43 0 0 1 0 18.27.75.75 0 1 0 1.15 1 15.93 15.93 0 0 0 0-20.2z"></path>
    <path d="M58.79.28a.75.75 0 1 0-1.16 1 21 21 0 0 1 0 26.58.76.76 0 0 0 .1 1.07.78.78 0 0 0 1.06-.1 22.57 22.57 0 0 0 0-28.51zM33 8.69a.56.56 0 0 1 .45-.22.59.59 0 0 1 .37.14.6.6 0 0 1 .08.84 8 8 0 0 0 0 10.16.6.6 0 0 1-.08.84.51.51 0 0 1-.82-.08 9.17 9.17 0 0 1 0-11.68zm-5.71-4.26a.78.78 0 0 1 .58-.27.71.71 0 0 1 .48.17.77.77 0 0 1 .1 1.07 14.43 14.43 0 0 0 0 18.27.76.76 0 0 1-.1 1.06.77.77 0 0 1-1.06-.1 16 16 0 0 1 0-20.2z"></path>
    <path d="M21.69.28a.72.72 0 0 1 .58-.28.73.73 0 0 1 .47.17.76.76 0 0 1 .11 1.07 21 21 0 0 0 0 26.58.76.76 0 0 1-1.16 1 22.54 22.54 0 0 1 0-28.51z"></path>
    <path d="M0 55.27A4.73 4.73 0 0 0 4.73 60h54.86a4.74 4.74 0 0 0 4.74-4.73V39.59a4.74 4.74 0 0 0-4.74-4.73H40.82V13.47a.82.82 0 0 0-.82-.82 1.29 1.29 0 0 0-.82.82v21.39H4.73a4.58 4.58 0 0 0-.83.08 5.24 5.24 0 0 0-3.82 3.82 5.69 5.69 0 0 0-.08.83zm1.63-15.68a3.1 3.1 0 0 1 3.1-3.1h54.86a3.1 3.1 0 0 1 3.1 3.1v15.68a3.11 3.11 0 0 1-.12.81 2.6 2.6 0 0 1-2.16 2.16 2.76 2.76 0 0 1-.82.13H4.73a3.1 3.1 0 0 1-3.1-3.1z"></path>
    <circle cx="14.29" cy="47.84" r="2.61"></circle>
    <circle cx="24.73" cy="47.84" r="2.61"></circle>
    <circle cx="35.18" cy="47.84" r="2.61"></circle>
    <circle cx="50.86" cy="47.84" r="2.61"></circle>
  </symbol>
  <symbol xmlns="http://www.w3.org/2000/svg" viewBox="0 0 91.5 60" id="smart_tv">
    <title>smart_tv</title>
    <path d="M85.7 0H5.8A5.8 5.8 0 0 0 0 5.8v41.09a5.8 5.8 0 0 0 5.8 5.8h27.52v4.64H20.53V60h50.71v-2.67H58.55v-4.64H85.7a5.8 5.8 0 0 0 5.8-5.8V5.8A5.8 5.8 0 0 0 85.7 0zM55.88 57.33H36v-4.64h19.88zm33-10.44a3.19 3.19 0 0 1-3.19 3.19H5.8a3.19 3.19 0 0 1-3.19-3.19V5.8A3.19 3.19 0 0 1 5.8 2.61h79.9a3.19 3.19 0 0 1 3.19 3.19z"
      fill="#898989"></path>
  </symbol>
  <symbol xmlns="http://www.w3.org/2000/svg" viewBox="0 0 70 43.07" id="whirpool_tub">
    <title>whirpool_tub</title>
    <path d="M9.66 14.32a3.57 3.57 0 1 1 3.56-3.57 3.57 3.57 0 0 1-3.56 3.57zm0-5.66a2.09 2.09 0 1 0 2.09 2.09 2.1 2.1 0 0 0-2.09-2.09zM3.07 7.52a3.07 3.07 0 1 1 3.07-3.07 3.08 3.08 0 0 1-3.07 3.07zm0-4.67a1.6 1.6 0 1 0 1.6 1.6 1.6 1.6 0 0 0-1.6-1.6zM12 4.23a2.12 2.12 0 1 1 2.12-2.12A2.12 2.12 0 0 1 12 4.23zm0-2.76a.64.64 0 1 0 .64.64.64.64 0 0 0-.64-.64zm50.87 36.16a6.8 6.8 0 0 1-4.49-1.69 6.84 6.84 0 0 1-6.52 1.38 7.83 7.83 0 0 1-5.06-5.1.74.74 0 0 1 .19-.77 6.88 6.88 0 0 1 2.66-1.55.73.73 0 0 1 .44 1.4 5.42 5.42 0 0 0-1.73.91 6.33 6.33 0 0 0 3.93 3.7A5.38 5.38 0 0 0 57.2 35a.67.67 0 0 1 .5-.33h.09a.7.7 0 0 1 .59.17.7.7 0 0 1 .59-.17.79.79 0 0 1 .49.26 5.36 5.36 0 0 0 5 1 6.29 6.29 0 0 0 3.92-3.7 5.57 5.57 0 0 0-1.72-.91.73.73 0 0 1 .44-1.4 6.88 6.88 0 0 1 2.66 1.55.74.74 0 0 1 .19.77 7.83 7.83 0 0 1-5.06 5.1 6.81 6.81 0 0 1-2.02.29z"></path>
    <path d="M60 35.46h-.17a.74.74 0 0 1 0-1.47H60a6 6 0 0 0 4.88-2.85A9.78 9.78 0 0 0 66.31 24a5.15 5.15 0 0 0-3.15 1 .74.74 0 0 1-.84-1.21A6.43 6.43 0 0 1 67 22.6a.74.74 0 0 1 .61.56A11.26 11.26 0 0 1 66.14 32 7.38 7.38 0 0 1 60 35.46zm-3.32 0a7.38 7.38 0 0 1-6.1-3.5 11.26 11.26 0 0 1-1.49-8.8.74.74 0 0 1 .61-.56 6.47 6.47 0 0 1 4.7 1.2.74.74 0 0 1-.8 1.2 5.11 5.11 0 0 0-3.15-1 9.78 9.78 0 0 0 1.39 7.12 5.74 5.74 0 0 0 5 2.85.74.74 0 0 1 0 1.47z"></path>
    <path d="M58.38 35.69a.75.75 0 0 1-.41-.12 10.71 10.71 0 0 1-4.37-8.68 8.76 8.76 0 0 1 4.4-7.54.76.76 0 0 1 .82 0 8.76 8.76 0 0 1 4.37 7.54 10.7 10.7 0 0 1-4.37 8.68.78.78 0 0 1-.44.12zm0-14.83a7.13 7.13 0 0 0-3.3 6 9.5 9.5 0 0 0 3.3 7.16 9.5 9.5 0 0 0 3.3-7.16 7.13 7.13 0 0 0-3.3-6z"></path>
    <path d="M62.55 24a39.12 39.12 0 0 0 .38-5.4.74.74 0 0 0-1.48 0 37.67 37.67 0 0 1-.33 5 3 3 0 0 1 1.43.4zm-2.94 9.68c-.5 0-.42.56-.81.38-.34.51-1.25.38-1.76 1-2.49 3-6.26 4.63-10.9 4.63H20.93a13.07 13.07 0 0 1-11.56-6.2c-2.47-3.73-3.77-8.9-3.77-15a.74.74 0 1 0-1.47 0c0 6.34 1.38 11.79 4 15.77a14.67 14.67 0 0 0 12.77 6.83h25.24c5 0 9.3-1.83 12-5.17a18 18 0 0 0 1.65-2.32z"></path>
    <path d="M66.31 18.91H.74a.74.74 0 1 1 0-1.47h65.57a.74.74 0 1 1 0 1.47zM10.22 43.07a.78.78 0 0 1-.37-.07.74.74 0 0 1-.27-1l2.27-3.91a.74.74 0 0 1 1.28.74l-2.28 3.91a.73.73 0 0 1-.63.33zm46.61 0a.74.74 0 0 1-.64-.36l-2.27-3.91a.73.73 0 0 1 1.27-.74L57.47 42a.75.75 0 0 1-.27 1 .84.84 0 0 1-.37.07z"></path>
  </symbol>
  <symbol xmlns="http://www.w3.org/2000/svg" viewBox="0 0 52.17 69.32" id="bottle_wine">
    <title>bottle_wine</title>
    <path d="M15.13 21.65V0H6v22a6 6 0 0 0-3.64 1.78C-.08 26.29 0 30.43 0 30.58V69h21.13V30.53c-.13-2.82-1.57-8.04-6-8.88zM13.13 2v4.07H8V2zM3.8 25.17A4.27 4.27 0 0 1 7 23.94h1V8.07h5.13V23.5h1c4.65.19 5 6.8 5 7v5.33H2v-5.28s0-3.48 1.8-5.38zm15.33 12.74v13.34H2V37.91zM2 67V53.25h17.13V67zm39-12.06h2.07a6.08 6.08 0 0 0 4.59-2.07c5.52-5.89 4.46-23 4.41-23.76l-.07-.93H27.75v1c0 .74-.65 18.25 4.82 23.93a5.65 5.65 0 0 0 4.18 1.87H39v12.34h-8.87v2h19.81v-2H41zM29.69 30.18h20.42c0 1.05.08 2.91 0 5.13H29.78c-.11-2.21-.11-4.07-.09-5.13zM34 51.68c-2.66-2.76-3.68-9.12-4.07-14.37h20.12c-.28 5.14-1.2 11.36-3.86 14.2a4.14 4.14 0 0 1-3.13 1.43h-6.35A3.68 3.68 0 0 1 34 51.68z"></path>
  </symbol>
  <symbol xmlns="http://www.w3.org/2000/svg" viewBox="0 0 23.5 60" id="cup">
    <title>cup</title>
    <path d="M11.75 41.58A11.86 11.86 0 0 1 3.34 38 11.69 11.69 0 0 1 0 29.44L.87.84A.87.87 0 0 1 1.73 0h20a.87.87 0 0 1 .87.84l.86 28.6A11.66 11.66 0 0 1 20.15 38a11.82 11.82 0 0 1-8.4 3.58zM2.57 1.73l-.84 27.76a10 10 0 0 0 2.85 7.28 10.06 10.06 0 0 0 7.17 3.08 10.05 10.05 0 0 0 7.16-3.08 9.92 9.92 0 0 0 2.85-7.28l-.83-27.76z"></path>
    <path d="M11.26 37.54a.86.86 0 1 1 0-1.72 6.4 6.4 0 0 0 4.6-2 6.52 6.52 0 0 0 1.93-4.77l-.49-10.46a.86.86 0 0 1 .82-.9.83.83 0 0 1 .91.82L19.51 29a8.13 8.13 0 0 1-2.41 6 8.09 8.09 0 0 1-5.84 2.54zm10.82-25.07H1.41a.87.87 0 0 1 0-1.73h20.67a.87.87 0 1 1 0 1.73zM21.65 60H1.84a.87.87 0 0 1 0-1.73h19.81a.87.87 0 1 1 0 1.73z"></path>
    <path d="M11.75 59.28a.86.86 0 0 1-.86-.87v-17.7a.86.86 0 0 1 1.72 0v17.7a.86.86 0 0 1-.86.87z"></path>
  </symbol>
  <symbol xmlns="http://www.w3.org/2000/svg" viewBox="0 0 62.31 60" id="snacks">
    <title>snacks</title>
    <path d="M31.16 5.67a1.21 1.21 0 1 0 1.21 1.21 1.21 1.21 0 0 0-1.21-1.21zm0 11.56a1.21 1.21 0 1 0 1.21 1.21 1.21 1.21 0 0 0-1.21-1.21zm5.78-4.63a1.22 1.22 0 1 0 1.21 1.22 1.22 1.22 0 0 0-1.21-1.22zM43.87 8a1.21 1.21 0 1 0 1.21 1.21A1.21 1.21 0 0 0 43.87 8zm0 9.25a1.21 1.21 0 1 0 1.21 1.21 1.21 1.21 0 0 0-1.21-1.23zM18.44 8a1.21 1.21 0 1 0 1.21 1.21A1.21 1.21 0 0 0 18.44 8zm0 9.25a1.21 1.21 0 1 0 1.21 1.21 1.21 1.21 0 0 0-1.21-1.23zm6.94-4.63a1.22 1.22 0 1 0 0 2.43 1.22 1.22 0 0 0 0-2.43zM11.5 14.91a1.22 1.22 0 1 0 1.22 1.22 1.22 1.22 0 0 0-1.22-1.22zm39.31 0a1.22 1.22 0 1 0 0 2.43 1.22 1.22 0 0 0 0-2.43zm9.26 23.18a5.82 5.82 0 0 0 2.24-4.62 5.71 5.71 0 0 0-3.37-5.27A8.08 8.08 0 0 0 60 24.38a.76.76 0 0 0 0-.16 1.79 1.79 0 0 0 0-.22C59.85 10.74 47 0 31.16 0S2.31 10.87 2.31 24.22a7.9 7.9 0 0 0 1 4 5.06 5.06 0 0 0-1.78 1.27 5.73 5.73 0 0 0-1.58 4 5.82 5.82 0 0 0 2.24 4.62 5.17 5.17 0 0 0-.7.62 5.92 5.92 0 0 0-1.54 4 5.84 5.84 0 0 0 2.36 4.67V52a8.05 8.05 0 0 0 8 8H52a8.05 8.05 0 0 0 8-8v-4.6a5.9 5.9 0 0 0 .07-9.31zm0-4.62A3.37 3.37 0 0 1 56.91 37H51l4.11-5.15a1.1 1.1 0 0 0 .17-.32A8.22 8.22 0 0 0 57.51 30a3.46 3.46 0 0 1 2.6 3.47zm-49.72-1.21A8 8 0 0 0 16 30h2.6a8 8 0 0 0 5.31 2.29l5 2.77-11.35 6.24-7.23-9zm-5.73-6.94h11.45a5.83 5.83 0 0 1-11.45 0zm13.88 0h11.44a5.82 5.82 0 0 1-11.44 0zm8.83 6.3A8 8 0 0 0 29.84 30h2.63a8 8 0 0 0 11.24 0h2.63A8 8 0 0 0 52 32.26l-7.24 9zm5-6.3h11.48a5.82 5.82 0 0 1-11.44 0zm13.87 0h11.49A5.84 5.84 0 0 1 56.36 28a5.82 5.82 0 0 1-10.08-2.76zM31.16 2.2c14.24 0 25.91 9.29 26.61 20.92H4.55C5.24 11.49 16.91 2.2 31.16 2.2zM2.2 33.47a3.54 3.54 0 0 1 1-2.53A2.87 2.87 0 0 1 4.79 30 8.07 8.07 0 0 0 7 31.52a1.1 1.1 0 0 0 .17.32L11.29 37H5.4a3.38 3.38 0 0 1-3.2-3.53zM52 57.8H10.35A5.85 5.85 0 0 1 4.51 52v-3.65a5.27 5.27 0 0 0 .89.09h51.51a5.27 5.27 0 0 0 .89-.09V52a5.85 5.85 0 0 1-5.8 5.8zm4.95-11.56H5.4a3.38 3.38 0 0 1-3.2-3.52 3.7 3.7 0 0 1 1-2.52 3 3 0 0 1 2.24-1h7.66l3.36 4.21a1.06 1.06 0 0 0 .34.26h.07a1.07 1.07 0 0 0 .42.1.87.87 0 0 0 .32-.06h.22l13.34-7.41 13.33 7.41h.22a.87.87 0 0 0 .32.06 1.07 1.07 0 0 0 .42-.1h.07a1.06 1.06 0 0 0 .34-.26l3.37-4.21h7.65a3.54 3.54 0 0 1 0 7.05z"
      fill="#898989"></path>
  </symbol>
  <symbol xmlns="http://www.w3.org/2000/svg" viewBox="0 0 57.74 60.8" id="room_service">
    <title>room_service</title>
    <path d="M46.94 37.15H10.8C7.49 37 .52 35.45 0 31.28a.6.6 0 0 1 .15-.49.61.61 0 0 1 .46-.21h56.5a.62.62 0 0 1 .61.7c-.5 4.17-7.47 5.72-10.72 5.87zM1.43 31.83c1.11 2.68 6.49 4 9.39 4.07h36.11c2.91-.1 8.27-1.4 9.38-4.07z"></path>
    <path d="M53.14 31.18a.64.64 0 0 1-.6-.65v-.74c0-6.87-2.55-12.64-7.37-16.68a25.37 25.37 0 0 0-16.3-5.57c-11.4 0-23.66 7-23.66 22.25v.65l-.62.11h-.62.62L4 30.48v-.69c0-11.32 7.79-23.5 24.91-23.5A26.53 26.53 0 0 1 46 12.16c5.11 4.28 7.81 10.37 7.81 17.63v.79a.63.63 0 0 1-.67.6z"></path>
    <path d="M48.06 26.4a.63.63 0 0 1-.62-.5c-1.88-9.78-10.8-14.16-18.82-14.16a.62.62 0 1 1 0-1.24c8.53 0 18 4.69 20.05 15.16a.63.63 0 0 1-.5.73zM28.87 6.07A3 3 0 0 1 26 3a2.92 2.92 0 1 1 5.84 0 3 3 0 0 1-2.97 3.07zm0-4.82A1.73 1.73 0 0 0 27.2 3a1.67 1.67 0 1 0 3.34 0 1.73 1.73 0 0 0-1.67-1.75zm22.75 44.59a4.84 4.84 0 0 0-3.85-1.93 5.9 5.9 0 0 0-3.7 1.42l-6.16 4.82h-.12l-7.9-1.84 8.59-2.85-.16-.58a4.87 4.87 0 0 0-4.91-3.71 7.06 7.06 0 0 0-1.85.26l-12.85 3.79-7.29-2.72-5.7 15.26 8.14 3 1.29-3.46H38l14-10.95zM13.1 59.13L7.38 57l4.79-12.84 5.73 2.13zm36.83-12.78l-12.41 9.7H15.64l3.59-9.63h.12l12.55-3.77a5.65 5.65 0 0 1 1.5-.21 3.57 3.57 0 0 1 3.35 1.9l.14.26-13.63 4.52.4 1.23 3.87-1.29h.07l10.61 2.47 6.65-5.2c1.77-1.35 3.65-1.51 5.07-.4l.25.2z"></path>
  </symbol>
  <symbol xmlns="http://www.w3.org/2000/svg" viewBox="0 0 28.46 28.46" id="check_full">
    <title>check_full</title>
    <path d="M26.43 0H2a2 2 0 0 0-2 2v24.4a2 2 0 0 0 2 2h24.4a2 2 0 0 0 2-2V2a2 2 0 0 0-1.97-2zm-4 12.45a.26.26 0 0 1-.16.25 21.12 21.12 0 0 0-5.66 4.15A26 26 0 0 0 13 22.62a.28.28 0 0 1-.49.05 45.75 45.75 0 0 0-3-3.71 14.4 14.4 0 0 0-3.32-2.15.28.28 0 0 1-.05-.47l3.28-2.76a.3.3 0 0 1 .44.07l2.56 4.06a33 33 0 0 1 4.05-6.91 35 35 0 0 1 5.42-5.07.28.28 0 0 1 .46.23z"
      fill="#898989"></path>
  </symbol>
  <symbol xmlns="http://www.w3.org/2000/svg" viewBox="0 0 45.45 60" id="drinks">
    <title>drinks</title>
    <path d="M45.13.34a1.15 1.15 0 0 0-1.61 0l-5.6 5.49H0V7c0 4.24 1.19 7.4 3.74 9.94 2.19 2.17 5.16 3.67 8.54 5.21a9.69 9.69 0 0 0 8.49 8.43v27.2h-10.1a1.14 1.14 0 0 0 0 2.27h22.48a1.14 1.14 0 0 0 0-2.27H23V30.53a9.69 9.69 0 0 0 8.5-8.43c3.38-1.54 6.35-3 8.53-5.21 2.56-2.54 3.75-5.7 3.75-9.94V5.81h-2.62l4-3.86a1.14 1.14 0 0 0-.03-1.61zM35.6 8.08l-3.28 3.21H2.88a13.61 13.61 0 0 1-.58-3.21zM30 20.31l-.63.28v.69a7.43 7.43 0 0 1-14.84 0v-.69l-.64-.28c-4.55-2.06-8-3.78-9.88-6.75H30l-8.82 8.62a1.14 1.14 0 0 0 0 1.61 1.1 1.1 0 0 0 .81.34 1.16 1.16 0 0 0 .79-.32l10.46-10.25h6.63C38 16.53 34.55 18.25 30 20.31zM41.51 8.08a12.83 12.83 0 0 1-.58 3.24.9.9 0 0 0-.16 0h-5.21l3.28-3.21z"
      fill="#898989"></path>
  </symbol>
  <symbol xmlns="http://www.w3.org/2000/svg" viewBox="0 0 31.96 31.96" id="Radio_empty">
    <title>Radio_empty</title>
    <path d="M16 32a16 16 0 1 1 16-16 16 16 0 0 1-16 16zm0-30a14 14 0 1 0 14 14A14 14 0 0 0 16 2z" fill="#898989"></path>
  </symbol>
  <symbol xmlns="http://www.w3.org/2000/svg" viewBox="0 0 28.46 28.46" id="check_empty">
    <title>check_empty</title>
    <path d="M26.43 28.46H2a2 2 0 0 1-2-2V2a2 2 0 0 1 2-2h24.4a2 2 0 0 1 2 2v24.4a2 2 0 0 1-1.97 2.06zM2 1.36a.67.67 0 0 0-.64.64v24.4a.67.67 0 0 0 .64.7h24.4a.67.67 0 0 0 .67-.67V2a.67.67 0 0 0-.67-.67z" fill="#898989"></path>
  </symbol>
  <symbol xmlns="http://www.w3.org/2000/svg" viewBox="0 0 66.99 62" id="bed">
    <title>bed</title>
    <path d="M67 45.3L61.37 25a1 1 0 0 0-.32-.5 1 1 0 0 0 .17-.53V5.37A5.38 5.38 0 0 0 55.85 0H11.14a5.38 5.38 0 0 0-5.37 5.37V24a1 1 0 0 0 .22.6.91.91 0 0 0-.25.42L0 45.3a1 1 0 0 0 .16.86.85.85 0 0 0-.11.42V61a1 1 0 0 0 1 1h9.62a1 1 0 0 0 1-1v-6.31h43.61V61a1 1 0 0 0 1 1h9.61a1 1 0 0 0 1-1V46.58a1 1 0 0 0-.1-.42 1 1 0 0 0 .21-.86zM11.14 2h44.71a3.37 3.37 0 0 1 3.37 3.37V24a63.88 63.88 0 0 0-3.86-.6.8.8 0 0 0 0-.15V20.4a5.83 5.83 0 0 0-5.82-5.82h-10.9a5.85 5.85 0 0 0-5.15 3.11 5.82 5.82 0 0 0-5.14-3.11H17.42a5.83 5.83 0 0 0-5.82 5.82v2.82a1.07 1.07 0 0 0 .06.31c-1.34.16-2.64.34-3.92.54a.53.53 0 0 0 0-.12V5.37A3.37 3.37 0 0 1 11.14 2zm21 20.28c-6.24.07-12.66.4-18.6 1V20.4a3.83 3.83 0 0 1 3.82-3.82h10.99a3.83 3.83 0 0 1 3.82 3.82v1.84a.06.06 0 0 0 .01.04zm21.21.86a177.64 177.64 0 0 0-18.58-.88V20.4a3.83 3.83 0 0 1 3.82-3.82h10.98a3.83 3.83 0 0 1 3.82 3.82zm-45.9 3c16.92-2.67 41.81-2.21 52.12 0l5.07 18.48H2.32zM64.89 60h-7.61v-6.31a1 1 0 0 0-1-1H10.71a1 1 0 0 0-1 1V60H2.09V46.58h62.8z"
      fill="#898989"></path>
  </symbol>
  <symbol xmlns="http://www.w3.org/2000/svg" viewBox="0 0 64.06 60" id="dinner">
    <title>dinner</title>
    <path d="M49.35 8.45H47.1l-.1-.1A17.82 17.82 0 0 0 32 0a17.62 17.62 0 0 0-15 8.35l-.06.1h-2.23a14.71 14.71 0 0 0-3.91 28.89h.15V60h42.16V37.38h.15a14.71 14.71 0 0 0-3.91-28.93zm.21 28v1.43a15.5 15.5 0 0 0 1.9-.15h.23V52H41.4V39.19H40V52h-7.26V39.19h-1.42V52h-7.24V39.19h-1.42V52h-7.39v1.42h36.42v5.13H12.37V37.68h.24a15.2 15.2 0 0 0 1.9.15v-1.39a13.29 13.29 0 0 1 .2-26.57h1.46l-.13.29a16.21 16.21 0 0 0-.82 2.07l-.05.14H15A10.8 10.8 0 0 0 4.24 23h1.42a9.36 9.36 0 0 1 8.86-9.13h.26v.26a17.61 17.61 0 0 0 1.82 12.16l1.24-.7A16.26 16.26 0 0 1 46 9.34l1.38-.8v1.33h2a13.29 13.29 0 0 1 .21 26.57z"
      fill="#898989"></path>
  </symbol>
  <symbol xmlns="http://www.w3.org/2000/svg" viewBox="0 0 63 63" id="less">
    <title>less</title>
    <path d="M42.22 33.27H20.78v-3.54h21.44z"></path>
    <path d="M58.5 63h-54A4.51 4.51 0 0 1 0 58.5v-54A4.51 4.51 0 0 1 4.5 0h54A4.51 4.51 0 0 1 63 4.5v54a4.51 4.51 0 0 1-4.5 4.5zM4.5 3A1.5 1.5 0 0 0 3 4.5v54A1.5 1.5 0 0 0 4.5 60h54a1.5 1.5 0 0 0 1.5-1.5v-54A1.5 1.5 0 0 0 58.5 3z"></path>
  </symbol>
  <symbol xmlns="http://www.w3.org/2000/svg" viewBox="0 0 23.75 60" id="Flecha_der">
    <title>Flecha_der</title>
    <path d="M2.5 60a2.7 2.7 0 0 1-1.32-.34 2.14 2.14 0 0 1-.8-3.12l17.94-26L.36 3.43A2.15 2.15 0 0 1 1.21.32a2.66 2.66 0 0 1 3.43.78l18.75 28.3a2.08 2.08 0 0 1 0 2.37L4.62 58.94A2.58 2.58 0 0 1 2.5 60z" fill="#898989"></path>
  </symbol>
  <symbol xmlns="http://www.w3.org/2000/svg" viewBox="0 0 60 60.06" id="Idioma">
    <title>promocion</title>
    <path d="M58.12 2.37A7.46 7.46 0 0 0 51.68.05L35 1.69a10.8 10.8 0 0 0-5.73 2.52L1.78 31.7c-2.17 2.17-2.39 5.49-.48 7.4L21 58.78a4.46 4.46 0 0 0 3.2 1.28 5.74 5.74 0 0 0 4-1.72l27.47-27.49a10.08 10.08 0 0 0 2.59-5.29L60 8.32a7.63 7.63 0 0 0-1.88-5.95zM26.6 56.75a3.47 3.47 0 0 1-2.42 1.06 2.2 2.2 0 0 1-1.61-.62L2.89 37.52c-1-1-.8-3 .48-4.23l4.48-4.48 23.34 23.34zM57.72 8.1L56 25.34a7.81 7.81 0 0 1-1.94 3.92L32.78 50.57 9.44 27.22 30.86 5.8a8.52 8.52 0 0 1 4.36-1.87L51.9 2.28h.65a5.15 5.15 0 0 1 3.9 1.63 5.4 5.4 0 0 1 1.27 4.19z"></path>
    <path d="M47.26 7.13a5.61 5.61 0 1 0 5.61 5.61 5.62 5.62 0 0 0-5.61-5.61zm0 9a3.37 3.37 0 1 1 3.37-3.37 3.37 3.37 0 0 1-3.37 3.35zM23 30.19l-.42-1.83 19.82-4.58.42 1.83zm6.58 1.29a4.47 4.47 0 0 1 3.21-1.42 4.81 4.81 0 0 1 4.61 4.6A4.58 4.58 0 0 1 35.86 38l-.77.76a4.43 4.43 0 0 1-3.2 1.42 4.38 4.38 0 0 1-3.19-1.39 4.43 4.43 0 0 1-1.41-3.2 4.51 4.51 0 0 1 1.47-3.29zm1.13-16.38a4.47 4.47 0 0 1 3.21-1.42 4.35 4.35 0 0 1 3.21 1.39 4.29 4.29 0 0 1 1.39 3.22A4.6 4.6 0 0 1 37 21.55l-.76.76a4.32 4.32 0 0 1-6.37 0 4.46 4.46 0 0 1-1.41-3.2A4.52 4.52 0 0 1 30 15.85zm-.53 18.69a2.88 2.88 0 0 0-.92 1.86 2.24 2.24 0 0 0 .74 1.81 2.2 2.2 0 0 0 1.77.7 3.06 3.06 0 0 0 1.9-1l.8-.8a2.93 2.93 0 0 0 .92-1.85 2.23 2.23 0 0 0-.72-1.79 2.19 2.19 0 0 0-1.76-.7A2.91 2.91 0 0 0 31 33zm1.19-16.39a2.89 2.89 0 0 0-.91 1.85 2.24 2.24 0 0 0 .72 1.81 2.2 2.2 0 0 0 1.76.7 2.94 2.94 0 0 0 1.9-1l.79-.79a3 3 0 0 0 .92-1.84A2.4 2.4 0 0 0 34 15.65a3 3 0 0 0-1.89 1z"></path>
  </symbol>
  <symbol xmlns="http://www.w3.org/2000/svg" viewBox="0 0 63 63" id="promocion">
    <title>Plus</title>
    <path d="M33.68 29h9.52v4.1h-9.52v10.82h-4.36V33.14H19.8V29h9.52V19h4.36z"></path>
    <path d="M58.5 63h-54A4.51 4.51 0 0 1 0 58.5v-54A4.51 4.51 0 0 1 4.5 0h54A4.51 4.51 0 0 1 63 4.5v54a4.51 4.51 0 0 1-4.5 4.5zM4.5 3A1.5 1.5 0 0 0 3 4.5v54A1.5 1.5 0 0 0 4.5 60h54a1.5 1.5 0 0 0 1.5-1.5v-54A1.5 1.5 0 0 0 58.5 3z"></path>
  </symbol>
  <symbol xmlns="http://www.w3.org/2000/svg" viewBox="0 0 23.75 60" id="flecha_izq">
    <title>flecha_izq</title>
    <path d="M21.25 60a2.77 2.77 0 0 0 1.33-.34 2.14 2.14 0 0 0 .79-3.12l-17.94-26 18-27.11a2.15 2.15 0 0 0-.89-3.11 2.66 2.66 0 0 0-3.43.78L.36 29.4a2.08 2.08 0 0 0 0 2.37l18.77 27.17A2.58 2.58 0 0 0 21.25 60z" fill="#898989"></path>
  </symbol>
  <symbol xmlns="http://www.w3.org/2000/svg" viewBox="0 0 31.96 31.96" id="telefono">
    <title>Radio_full</title>
    <path d="M16 32a16 16 0 1 1 16-16 16 16 0 0 1-16 16zm0-30a14 14 0 1 0 14 14A14 14 0 0 0 16 2z"></path>
    <circle cx="15.98" cy="15.98" r="8.4"></circle>
  </symbol>
  <symbol xmlns="http://www.w3.org/2000/svg" viewBox="0 0 60.84 60" id="Radio_full">
    <title>telefono</title>
    <path d="M56.19 43.18c-1.9-1.49-4-2.83-5.91-4.21-4-2.68-7.63-2.9-10.57 1.45-1.68 2.46-4 2.57-6.44 1.49-6.74-2.94-11.91-7.51-15-14.25a8.41 8.41 0 0 1-.78-3c-.12-1.78.63-3.34 2.64-4.72 1.67-1.08 3.31-2.38 3.2-4.8C23.22 12 15.4 1.46 12.28.31a6.12 6.12 0 0 0-3.83 0C1.19 2.72-1.79 8.53 1.08 15.42a80.45 80.45 0 0 0 5.47 10.86c8.89 14.89 22 25.76 38.89 32.86a16.63 16.63 0 0 0 3.16.86c4.73.07 10.23-4.43 11.84-8.82s-1.72-5.92-4.25-8z"
      fill="#898989" fill-rule="evenodd"></path>
  </symbol>
  <symbol xmlns="http://www.w3.org/2000/svg" viewBox="0 0 24.16 19.01" id="List">
    <title>List</title>
    <path fill="#898989" d="M24.16 0H0l12.08 19.01L24.16 0z"></path>
  </symbol>
  <symbol xmlns="http://www.w3.org/2000/svg" viewBox="0 0 60 60" id="Menu">
    <title>Menu</title>
    <path d="M43.94 20.57H15a2.13 2.13 0 1 1 0-4.25h28.94a2.13 2.13 0 0 1 0 4.25zm0 11.43H15a2.13 2.13 0 1 1 0-4.25h28.94a2.13 2.13 0 0 1 0 4.25zm0 11.49H15a2.13 2.13 0 1 1 0-4.25h28.94a2.13 2.13 0 0 1 0 4.25z"></path>
    <path d="M30 60a30 30 0 1 1 30-30 30 30 0 0 1-30 30zm0-57.94A27.94 27.94 0 1 0 57.94 30 28 28 0 0 0 30 2.06z"></path>
  </symbol>
  <symbol xmlns="http://www.w3.org/2000/svg" viewBox="0 0 126.81 60" id="Logo_corona_Palace">
    <title>Logo_corona_Palace</title>
    <path d="M0 0l17.29 48.75 15.44-25.37L0 0z"></path>
    <path d="M16.28 45.7l5 14.24q20.52-1 41.74-1 22.07 0 43.41 1.07l4.42-14.23Q87.48 44.27 63 44.24q-23.86 0-46.71 1.46"></path>
    <path d="M126.81.14l-17.33 49.55-15.41-26.18L126.81.14zM72.8 9.73l-9.63 9.65-9.68-9.65L63.17.07l9.63 9.66zM59.29 23.46l-9.66 9.66-9.65-9.66 9.65-9.65 9.66 9.65zm27.48 0l-9.65 9.66-9.65-9.66 9.65-9.65 9.65 9.65z"></path>
  </symbol>
  <symbol xmlns="http://www.w3.org/2000/svg" viewBox="0 0 37.96 60" id="recorrido_virtual">
    <title>recorrido_virtual</title>
    <circle cx="21.97" cy="6.23" r="6.23"></circle>
    <path d="M17.81 14.14s4.37-.15 5.29 4 1.76 6.48 3.45 7.82 9.58 5.71 9.58 5.71 2.25.84 1.76 2.46-1.76 1.76-3.24 1.27a71.71 71.71 0 0 1-9.51-5.21c-1-.85-1.2-1.41-2.18-1.41s-2.4 1.27-2.75 3.24 1.62 5.98 2.46 7.48 9.51 15.14 9.51 15.14 2.33 3.17.64 4.72-4.93-1.48-4.93-1.48l-15.5-19.44a3.66 3.66 0 0 1-1.2-3.31c.28-2.19.35-5.71.71-7.12s.91-5.63.91-5.63-2.53 2-3.38 2.67-1.9 1.62-2 2.33 0 7.47 0 7.47.49 3-1.76 3.31-2.79-1.76-2.79-3.38V24.35s-.14-.85 1.34-1.9 7.36-5.73 8.43-6.56a7.25 7.25 0 0 1 5.16-1.75z"></path>
    <path d="M11.17 40.76l2.73 3.8a.66.66 0 0 1 .12.33 9 9 0 0 1-.36 3.55c-.54 1.07-7.31 9.53-8 10.36a.49.49 0 0 1-.13.12c-.46.31-3 1.92-4.79.51-2-1.55.5-4.44.5-4.44s6.62-6.76 7.25-8.87c.42-1.4 1.12-3.74 1.54-5.17a.63.63 0 0 1 1.14-.19z"></path>
  </symbol>
  <symbol xmlns="http://www.w3.org/2000/svg" viewBox="0 0 60 60" id="Cerrar_Menu">
    <title>Cerrar_Menu</title>
    <path d="M33 30l9.57-9.56a2.13 2.13 0 0 0-3-3L30 27l-9.56-9.57a2.13 2.13 0 0 0-3 3L27 30l-9.56 9.56a2.13 2.13 0 0 0 3 3L30 33l9.56 9.57a2.13 2.13 0 0 0 3-3z"></path>
    <path d="M30 60a30 30 0 1 1 30-30 30 30 0 0 1-30 30zm0-57.94A27.94 27.94 0 1 0 57.94 30 28 28 0 0 0 30 2.06z"></path>
  </symbol>
  <symbol xmlns="http://www.w3.org/2000/svg" viewBox="0 0 206.06 158.81" id="LBLC">
    <title>LBLC</title>
    <path d="M103 87.83c-36 0-67.73 4.51-94.12 14.32-2.19.81-7.4 3.06-8.1 3.46-.2.11-.62.29-.77.06s.43-.71.53-.76C20.92 92.84 59.18 84.25 103 84.25s82.11 8.59 102.46 20.66c.09 0 .74.41.52.76s-.56 0-.76-.06c-.7-.4-5.92-2.65-8.1-3.46-26.35-9.81-58.04-14.32-94.12-14.32zM38.41 48.15v25.43c0 .44.21 1.18 1.65 1.18s1.64-.76 1.64-1.18v-2c2.69 2 6.33 3.14 11 3.19a20.72 20.72 0 0 0 8.3-1.66c3.78-1.56 5.77-3.94 5.89-7-.13-3.22-2.12-5.59-5.89-7.11a23 23 0 0 0-8.3-1.65c-4.52 0-8.18 1-11 3.12V48.15c0-.38-.15-1.27-1.64-1.27s-1.65.89-1.65 1.27zM41.7 66v-.21c0-2 1.42-3.59 4.34-4.72a19.5 19.5 0 0 1 6.62-1.35 16.65 16.65 0 0 1 6.57 1.13c2.82 1.12 4.23 2.83 4.31 5.19-.08 2.31-1.49 4-4.31 5.08a18.54 18.54 0 0 1-6.58 1.21A17.55 17.55 0 0 1 46 71.14C43.23 70 41.82 68.36 41.7 66zm28.86-17.92V73.5c0 .45.22 1.19 1.66 1.19s1.64-.74 1.64-1.19V48.08c0-.39-.16-1.28-1.64-1.28s-1.66.89-1.66 1.28zm10.67 10.83c-2.29 1-3.53 2.35-3.68 4.15l.26.85a1.78 1.78 0 0 0 1.41.47c1.35 0 1.62-.77 1.66-1.23.1-1.25 1.93-2 3.45-2.49a25.73 25.73 0 0 1 7.19-.92c3.77 0 6.64.75 8.52 2.22.57.44.85 1.52.86 3.12a23.15 23.15 0 0 0-10-2 28.46 28.46 0 0 0-7.37.92c-3.81 1-5.82 2.66-6 4.9s1.8 3.79 6 4.83a31.71 31.71 0 0 0 7.39 1 24.26 24.26 0 0 0 9.21-1.56l.77-.34v.72c0 .44.21 1.18 1.63 1.18s1.66-.74 1.66-1.18v-7.76a14.16 14.16 0 0 0-.23-3.75c-.4-1.13-1.52-2.09-3.44-2.95a22.31 22.31 0 0 0-9.26-1.83 26.19 26.19 0 0 0-10.03 1.65zm2.84 12.4a9.17 9.17 0 0 1-2-.84 2.14 2.14 0 0 1-1.21-1.58c0-1 1.47-1.93 4.29-2.61a26.06 26.06 0 0 1 5.76-.79 21.93 21.93 0 0 1 5.71.69c2.72.68 4.19 1.64 4.27 2.77-.13 1.42-2.44 2.27-4.33 2.72a25 25 0 0 1-5.66.68 20.76 20.76 0 0 1-6.83-1.04zm27.03-10.93v-1.86c0-.38-.15-1.26-1.63-1.26s-1.66.8-1.66 1.27v15c0 .45.22 1.19 1.66 1.19s1.63-.74 1.63-1.18V66c0-2.53 2.16-4.45 6.42-5.69a16.71 16.71 0 0 1 4.57-.68 15.54 15.54 0 0 1 7.61 1.9 7.14 7.14 0 0 1 3.08 3.08 8.59 8.59 0 0 1 .3 3.08v5.78c0 .44.21 1.18 1.64 1.18s1.66-.74 1.66-1.19V66c0-3.26-2.41-5.81-7.17-7.58a20.14 20.14 0 0 0-6.92-1.17c-4.63.01-8.35 1.08-11.19 3.13zm41.05-2.95c-7 .78-11.07 3.37-12 7.71l-.15 1.28c0 3.74 3.27 6.4 9.71 7.88a23.1 23.1 0 0 0 5 .53 16.85 16.85 0 0 0 11.61-4l.26-.33.09-.12v-.17c0-.82-1-1-1.36-1.09a1.83 1.83 0 0 0-1.66.28 12.75 12.75 0 0 1-8.86 3 15.8 15.8 0 0 1-8.74-2.2 5 5 0 0 1-2.6-4.25c0-1.94 1.24-3.46 3.81-4.66a17.61 17.61 0 0 1 7.55-1.57c4.43 0 7.73 1.4 9.79 4.16a1.78 1.78 0 0 0 1.69.46c1.17-.16 1.35-.82 1.35-1.18l-.26-.67c-2.55-3.43-6.77-5.18-12.54-5.18zM98 36.86a.69.69 0 0 1-.67.72.7.7 0 0 1-.69-.72V.73a.71.71 0 0 1 .69-.73.7.7 0 0 1 .67.73zm14.81-4.94c-3.27.29-6.36-1.1-7.69-4.11a7.34 7.34 0 0 1 3.16-9.81c1.88-.9 3.07 0 3.34.57.42 1-.41 2.14-1.38 2.6s-1.84.8-1.77 1.82c.14 1.84 2.34 1.27 4 .5 2.5-1.23 4.19-3.95 3.07-6.49-1-2.2-4.14-4.08-8.44-2.12a9.68 9.68 0 0 0-4.64 12.65 8.83 8.83 0 0 0 8.89 5.32c1.26 0 3.32-.72 3.23-1s-.77-.02-1.77.07z"></path>
    <path d="M162.44 106.83h1a1.59 1.59 0 0 0 .49-.06.48.48 0 0 0 .27-.21.56.56 0 0 0 .09-.31.54.54 0 0 0-.17-.4.83.83 0 0 0-.57-.16h-1.09zm-.46 1.94v-3.46h1.54a2.12 2.12 0 0 1 .7.09.81.81 0 0 1 .38.33 1 1 0 0 1 .14.52.84.84 0 0 1-.23.62 1.25 1.25 0 0 1-.74.33 1 1 0 0 1 .28.17 2.27 2.27 0 0 1 .38.46l.59.94h-.57l-.45-.72-.33-.48a1 1 0 0 0-.24-.23.78.78 0 0 0-.21-.09h-.78v1.54H162"></path>
    <path d="M163.34 103.53a3.55 3.55 0 1 0 3.55 3.54 3.55 3.55 0 0 0-3.55-3.54zm2.92 3.54a2.92 2.92 0 1 1-2.92-2.91 2.92 2.92 0 0 1 2.92 2.91m-109.37-.88c0 .23-.17.34-.58.34s-.55-.11-.57-.34q-.06-.61-1.47-.9c-.21 0-.81-.1-1.82-.18-.73-.07-1.38-.1-2-.1a15.26 15.26 0 0 0-2.49.23c-1.37.23-2 .56-2 1 0 .17.15.32.45.46a11.36 11.36 0 0 0 4.41.7q4.43.06 5.68 1.32a1 1 0 0 1 .36.73c0 .62-.59 1.11-1.76 1.47a13.89 13.89 0 0 1-4.19.62 15.88 15.88 0 0 1-2.59-.2q-3.43-.51-3.54-1.89c0-.2.18-.31.58-.31s.55.11.57.31q.06.72 1.44 1.08a11.17 11.17 0 0 0 1.82.28c.69.06 1.3.09 1.82.09a13.81 13.81 0 0 0 2.6-.26c1.4-.29 2.1-.69 2.1-1.22 0-.19-.16-.37-.48-.55a9.53 9.53 0 0 0-4.41-.85q-4.4-.06-5.66-1.16a.93.93 0 0 1-.38-.62c0-.56.6-1 1.79-1.32a15.91 15.91 0 0 1 4.15-.54 17.16 17.16 0 0 1 2.59.2c2.31.31 3.5.85 3.58 1.61zM72 108c-.06 1.25-1 2.21-2.67 2.86a10.5 10.5 0 0 1-3.86.7 8.43 8.43 0 0 1-5.29-1.56v5.23c0 .23-.19.35-.57.35s-.58-.12-.58-.35v-10.47c0-.25.19-.37.58-.35s.57.13.57.35V106a8.26 8.26 0 0 1 5.33-1.52 11.55 11.55 0 0 1 3.86.7c1.71.61 2.63 1.57 2.63 2.82zm-1.16 0c0-1.11-.76-1.92-2.17-2.44a8.47 8.47 0 0 0-3.2-.5 14.24 14.24 0 0 0-2 .13 6 6 0 0 0-1.91.79c-1 .6-1.47 1.27-1.44 2a2.73 2.73 0 0 0 2.14 2.44 9.4 9.4 0 0 0 3.19.5 9.89 9.89 0 0 0 3.2-.54c1.47-.47 2.19-1.28 2.23-2.38zM85 111.3c0 .2-.19.31-.58.31s-.57-.11-.57-.31v-.62c-.23.11-.45.2-.64.27a12.2 12.2 0 0 1-4.25.66 15.63 15.63 0 0 1-3.43-.45c-1.82-.42-2.7-1-2.64-1.88s.95-1.52 2.65-1.93A13.8 13.8 0 0 1 79 107a11 11 0 0 1 4.92 1c0-1-.12-1.56-.48-1.82a7.06 7.06 0 0 0-4.14-1 13.06 13.06 0 0 0-3.44.4c-1.14.31-1.73.73-1.78 1.26 0 .23-.21.35-.57.35s-.6-.12-.58-.35c.06-.7.6-1.24 1.6-1.63a13.12 13.12 0 0 1 4.63-.7 10.93 10.93 0 0 1 4.28.78c.84.35 1.34.73 1.5 1.16a6.24 6.24 0 0 1 .1 1.55zm-1.15-2c0-.6-.76-1.06-2.16-1.39a11.5 11.5 0 0 0-2.73-.31 13.28 13.28 0 0 0-2.75.35c-1.48.34-2.2.79-2.17 1.35a1.09 1.09 0 0 0 .67.85 3.75 3.75 0 0 0 1 .39A10.85 10.85 0 0 0 79 111a12.77 12.77 0 0 0 2.7-.31c1.37-.32 2.1-.78 2.16-1.41zm16.81-4.54c0 .2-.17.31-.5.31a16.85 16.85 0 0 0-3.58.26c-2.09.56-3.14 1.45-3.14 2.68v3.25c0 .21-.2.31-.6.31s-.58-.1-.58-.31v-6.5c0-.24.19-.35.58-.35s.6.11.6.35V106a5.59 5.59 0 0 1 2-1 17.37 17.37 0 0 1 4.67-.47c.38-.09.55.02.55.23zm13.55 3.08q0 .24-.57.24H102.8a2.21 2.21 0 0 0 1.19 1.83 7.77 7.77 0 0 0 4.34 1.08 6.72 6.72 0 0 0 4.32-1.36.83.83 0 0 1 .64-.07c.29 0 .44.14.44.27s0 .06-.09.12a8.13 8.13 0 0 1-5.31 1.7 9.56 9.56 0 0 1-5.14-1.32 2.71 2.71 0 0 1-1.6-2.21 2.17 2.17 0 0 1 .26-1q1.35-2.72 5.84-2.72h1q4.33.26 5.5 3.22a.39.39 0 0 1 .02.22zm-1.31-.37q-1.14-2.32-4.79-2.36a8.46 8.46 0 0 0-2.75.44 3.39 3.39 0 0 0-2.46 1.92zm14.61-1.28c0 .23-.17.34-.58.34s-.55-.11-.57-.34q-.06-.61-1.47-.9c-.21 0-.81-.1-1.82-.18-.73-.07-1.38-.1-1.95-.1a15.26 15.26 0 0 0-2.49.23c-1.37.23-2 .56-2 1 0 .17.15.32.45.46a11.36 11.36 0 0 0 4.41.7q4.43.06 5.68 1.32a1 1 0 0 1 .36.73c0 .62-.59 1.11-1.76 1.47a13.89 13.89 0 0 1-4.19.62 15.88 15.88 0 0 1-2.59-.2q-3.43-.51-3.54-1.89c0-.2.18-.31.58-.31s.55.11.57.31q.06.72 1.44 1.08a11 11 0 0 0 1.82.28c.69.06 1.3.09 1.82.09a13.89 13.89 0 0 0 2.6-.26c1.4-.29 2.1-.69 2.1-1.22 0-.19-.16-.37-.49-.55a9.46 9.46 0 0 0-4.4-.85q-4.39-.06-5.66-1.16a.93.93 0 0 1-.38-.62c0-.56.59-1 1.79-1.32a15.91 15.91 0 0 1 4.15-.54 17.36 17.36 0 0 1 2.59.2c2.25.31 3.45.85 3.53 1.61zm14.22 1.81c0 1.25-.94 2.21-2.67 2.86a10.43 10.43 0 0 1-3.86.7 11.15 11.15 0 0 1-3.87-.72c-1.81-.67-2.69-1.62-2.64-2.84s.94-2.24 2.65-2.89a10.31 10.31 0 0 1 3.86-.68 11.66 11.66 0 0 1 3.86.7c1.73.66 2.62 1.61 2.67 2.87zm-1.15 0c-.07-1.11-.79-1.92-2.18-2.44a8.5 8.5 0 0 0-3.2-.5 9.78 9.78 0 0 0-3.17.59c-1.48.55-2.2 1.33-2.16 2.35a2.76 2.76 0 0 0 2.14 2.44 9.25 9.25 0 0 0 3.19.5 9.71 9.71 0 0 0 3.2-.54c1.39-.49 2.11-1.3 2.18-2.4zm10.73-3.24c0 .2-.17.31-.5.31a16.85 16.85 0 0 0-3.58.26c-2.09.56-3.14 1.45-3.14 2.68v3.25c0 .21-.2.31-.6.31s-.58-.1-.58-.31v-6.5c0-.24.19-.35.58-.35s.6.11.6.35V106a5.59 5.59 0 0 1 2-1 17.37 17.37 0 0 1 4.67-.47c.38-.09.55.02.55.23zm6.62-.04c0 .21-.18.31-.55.31h-4v6.15c0 .24-.19.35-.57.35s-.61-.11-.61-.35v-9.49c0-.2.2-.3.61-.3s.57.1.57.3v2.72h4c.37 0 .55.1.55.31zM46.35 158.25c0 .23-.19.35-.58.35s-.59-.12-.59-.35V145.9c0-.26.2-.39.59-.39s.58.13.58.39zm15.43-3.66c-.05 1.41-1 2.48-2.71 3.22a9.74 9.74 0 0 1-3.92.79 10.71 10.71 0 0 1-3.94-.81c-1.84-.76-2.73-1.82-2.68-3.2s.95-2.5 2.69-3.23a9.47 9.47 0 0 1 3.93-.77 10.66 10.66 0 0 1 3.92.79c1.75.72 2.66 1.79 2.71 3.21zm-1.17 0a3.07 3.07 0 0 0-2.21-2.73 7.87 7.87 0 0 0-3.25-.57 9.23 9.23 0 0 0-3.23.67c-1.5.61-2.24 1.49-2.19 2.63a3 3 0 0 0 2.18 2.74 8.35 8.35 0 0 0 3.24.57 9.08 9.08 0 0 0 3.25-.61 3 3 0 0 0 2.21-2.7zm15.65-2.03c0 .25-.17.38-.58.38s-.56-.13-.58-.38c0-.47-.54-.81-1.5-1-.21 0-.82-.12-1.85-.21a18.4 18.4 0 0 0-2-.11 14 14 0 0 0-2.53.25c-1.39.27-2.08.64-2.08 1.12 0 .19.15.36.45.52a10.74 10.74 0 0 0 4.48.79q4.5.06 5.79 1.47a1.25 1.25 0 0 1 .35.83c0 .69-.59 1.24-1.78 1.64a13 13 0 0 1-4.26.7 15.31 15.31 0 0 1-2.63-.22c-2.33-.39-3.53-1.1-3.6-2.12 0-.23.18-.35.58-.35s.57.12.58.35c0 .53.54.93 1.47 1.21a10.77 10.77 0 0 0 1.85.31c.71.07 1.32.1 1.85.1a12.77 12.77 0 0 0 2.64-.29c1.42-.32 2.14-.78 2.14-1.37 0-.21-.17-.41-.5-.62a8.9 8.9 0 0 0-4.48-1c-3 0-4.89-.47-5.74-1.3a1 1 0 0 1-.39-.69c0-.63.6-1.13 1.81-1.49a15 15 0 0 1 4.23-.6 16.53 16.53 0 0 1 2.62.22c2.4.39 3.58 1 3.66 1.86zm22.12.64c0 .2-.15.31-.46.35a.67.67 0 0 1-.62-.13 5.6 5.6 0 0 0-4.85-2.11 8.48 8.48 0 0 0-3.7.79c-1.3.62-2 1.44-2 2.47a2.63 2.63 0 0 0 1.34 2.26 7.68 7.68 0 0 0 4.29 1.11 6.2 6.2 0 0 0 4.39-1.52.73.73 0 0 1 .62-.09c.32.07.48.17.48.31l-.09.13a7.81 7.81 0 0 1-5.43 1.91 10.56 10.56 0 0 1-2.34-.25c-3-.7-4.48-1.91-4.48-3.61a3.15 3.15 0 0 1 .07-.57q.61-3 5.55-3.57a11.82 11.82 0 0 1 1.27-.09c2.7 0 4.65.82 5.84 2.44a.27.27 0 0 1 .12.17zm14.48 5.09c0 .23-.2.35-.59.35s-.58-.12-.58-.35v-.69c-.24.12-.45.22-.65.3a11.25 11.25 0 0 1-4.32.74 14.68 14.68 0 0 1-3.49-.5c-1.85-.47-2.74-1.18-2.68-2.11s1-1.71 2.7-2.18a12.84 12.84 0 0 1 3.47-.43 10.21 10.21 0 0 1 5 1.09c0-1.07-.12-1.75-.49-2a6.66 6.66 0 0 0-4.2-1.12 12.24 12.24 0 0 0-3.5.45c-1.16.35-1.76.82-1.81 1.41 0 .27-.22.4-.58.4s-.61-.13-.59-.4c.06-.78.61-1.39 1.63-1.82a11.92 11.92 0 0 1 4.71-.79 10.22 10.22 0 0 1 4.34.87 2.67 2.67 0 0 1 1.53 1.31 8.47 8.47 0 0 1 .1 1.74zm-1.17-2.29c0-.68-.77-1.2-2.2-1.56a10.12 10.12 0 0 0-2.77-.35 12 12 0 0 0-2.79.39c-1.51.37-2.24.88-2.21 1.52a1.22 1.22 0 0 0 .68.95 4.19 4.19 0 0 0 1 .44 9.88 9.88 0 0 0 3.32.52 12 12 0 0 0 2.74-.34c1.43-.32 2.17-.84 2.23-1.57zm16.56-1.36c-.05 1.41-.94 2.48-2.68 3.21a9.71 9.71 0 0 1-3.92.79 8.1 8.1 0 0 1-5.45-1.74v1.39c0 .23-.19.35-.58.35s-.59-.12-.59-.35v-12.35c0-.26.2-.39.59-.39s.58.13.58.39v6.39a7.93 7.93 0 0 1 5.45-1.7 10.91 10.91 0 0 1 3.91.79c1.73.72 2.63 1.79 2.69 3.22zm-1.17 0a3 3 0 0 0-2.21-2.74 7.84 7.84 0 0 0-3.22-.56 9.37 9.37 0 0 0-3.24.66c-1.52.61-2.26 1.49-2.21 2.64a3 3 0 0 0 2.21 2.69 8.47 8.47 0 0 0 3.24.61 9.09 9.09 0 0 0 3.22-.61 3 3 0 0 0 2.21-2.69zm16.6-.05c-.05 1.41-1 2.48-2.71 3.22a9.71 9.71 0 0 1-3.92.79 10.71 10.71 0 0 1-3.94-.81c-1.84-.76-2.73-1.82-2.68-3.2s.95-2.5 2.7-3.23a9.42 9.42 0 0 1 3.92-.77 10.66 10.66 0 0 1 3.92.79c1.75.72 2.66 1.79 2.71 3.21zm-1.16 0a3.09 3.09 0 0 0-2.22-2.73 7.84 7.84 0 0 0-3.25-.57 9.18 9.18 0 0 0-3.22.67c-1.51.61-2.24 1.49-2.2 2.63a3 3 0 0 0 2.18 2.74 8.42 8.42 0 0 0 3.24.57 9 9 0 0 0 3.25-.61 3.05 3.05 0 0 0 2.22-2.7zm15.65-2.03c0 .25-.17.38-.59.38s-.56-.13-.58-.38c0-.47-.54-.81-1.5-1-.2 0-.82-.12-1.84-.21a18.71 18.71 0 0 0-2-.11 14 14 0 0 0-2.53.25c-1.39.27-2.08.64-2.08 1.12 0 .19.15.36.46.52a10.7 10.7 0 0 0 4.48.79q4.49.06 5.78 1.47a1.2 1.2 0 0 1 .35.83c0 .69-.59 1.24-1.78 1.64a13 13 0 0 1-4.26.7 15.31 15.31 0 0 1-2.63-.22c-2.33-.39-3.53-1.1-3.6-2.12 0-.23.18-.35.59-.35s.56.12.58.35c0 .53.53.93 1.46 1.21a10.77 10.77 0 0 0 1.85.31c.71.07 1.33.1 1.86.1a12.92 12.92 0 0 0 2.64-.29c1.42-.32 2.13-.78 2.13-1.37 0-.21-.16-.41-.49-.62a8.93 8.93 0 0 0-4.48-1c-3 0-4.89-.47-5.75-1.3a1 1 0 0 1-.39-.69c0-.63.61-1.13 1.82-1.49a14.89 14.89 0 0 1 4.22-.6 16.65 16.65 0 0 1 2.63.22c2.35.39 3.57 1 3.65 1.86z"></path>
  </symbol>
  <symbol xmlns="http://www.w3.org/2000/svg" viewBox="0 0 206.65 158.79" id="LBC">
    <defs>
      <clipPath id="a">
        <path fill="none" d="M0 0h206.65v158.88H0z"></path>
      </clipPath>
    </defs>
    <title>LBC</title>
    <g clip-path="url(#a)">
      <path d="M103.33 88.09c-36.15 0-67.93 4.51-94.39 14.35-2.2.82-7.42 3.07-8.13 3.48-.2.1-.62.29-.77 0s.44-.71.53-.76C21 93.11 59.35 84.49 103.33 84.49s82.35 8.62 102.75 20.72c.09.05.74.41.53.76s-.57 0-.77 0c-.7-.41-5.93-2.66-8.12-3.48-26.46-9.84-58.24-14.35-94.39-14.35M38.52 48.29v25.5c0 .44.22 1.19 1.66 1.19s1.64-.75 1.64-1.19v-2c2.69 2 6.35 3.15 11 3.2a21.21 21.21 0 0 0 8.39-1.65c3.79-1.58 5.78-4 5.9-7.08-.11-3.19-2.11-5.56-5.95-7.11a23.11 23.11 0 0 0-8.33-1.65 17.6 17.6 0 0 0-11 3.12V48.29c0-.38-.15-1.28-1.64-1.28s-1.66.9-1.66 1.28m3.3 17.92V66c0-2 1.42-3.6 4.35-4.73a19.57 19.57 0 0 1 6.64-1.36A16.9 16.9 0 0 1 59.4 61c2.83 1.13 4.24 2.84 4.33 5.21-.09 2.32-1.5 4-4.33 5.1a18.88 18.88 0 0 1-6.6 1.21 17.65 17.65 0 0 1-6.63-1.21c-2.81-1.11-4.23-2.79-4.35-5.14m28.95-17.95v25.49c0 .45.21 1.2 1.65 1.2s1.66-.75 1.66-1.2V48.22c0-.39-.17-1.28-1.66-1.28s-1.65.89-1.65 1.28m10.7 10.86c-2.3 1-3.54 2.36-3.7 4.16l.27.85a1.75 1.75 0 0 0 1.41.48c1.35 0 1.62-.78 1.66-1.24.11-1.25 1.94-2 3.46-2.49a25.57 25.57 0 0 1 7.22-.93c3.77 0 6.65.75 8.54 2.23.57.44.85 1.52.86 3.13a23.14 23.14 0 0 0-10-2 28.19 28.19 0 0 0-7.39.91c-3.82 1-5.83 2.67-6 4.92s1.8 3.8 6 4.85a32.49 32.49 0 0 0 7.41 1 24.41 24.41 0 0 0 9.24-1.57l.77-.34v.72c0 .44.21 1.19 1.64 1.19s1.66-.75 1.66-1.19V66a14.28 14.28 0 0 0-.23-3.76c-.4-1.13-1.53-2.1-3.45-3a22.28 22.28 0 0 0-9.28-1.84 26.11 26.11 0 0 0-10 1.66M84.4 71.5a8.76 8.76 0 0 1-2-.83 2.16 2.16 0 0 1-1.22-1.59c0-1 1.48-1.93 4.31-2.62a26.07 26.07 0 0 1 5.77-.79 21.56 21.56 0 0 1 5.72.7c2.73.68 4.21 1.63 4.29 2.77-.13 1.42-2.44 2.28-4.34 2.73a25.21 25.21 0 0 1-5.68.68 20.91 20.91 0 0 1-6.84-1m27.01-10.99v-1.88c0-.38-.15-1.26-1.63-1.26s-1.67.81-1.67 1.28v15c0 .44.22 1.19 1.67 1.19s1.63-.75 1.63-1.19v-7.47c0-2.54 2.17-4.46 6.44-5.71a16.78 16.78 0 0 1 4.58-.68 15.49 15.49 0 0 1 7.63 1.91 7.06 7.06 0 0 1 3.09 3.08 8.71 8.71 0 0 1 .3 3.1v5.79c0 .44.22 1.19 1.64 1.19s1.67-.75 1.67-1.19V66.2c0-3.27-2.41-5.83-7.18-7.6a20.12 20.12 0 0 0-7-1.18c-4.64 0-8.37 1.08-11.22 3.14m41.22-2.96c-7.06.78-11.1 3.38-12 7.73l-.14 1.28c0 3.76 3.28 6.42 9.73 7.91a23.22 23.22 0 0 0 5 .53 16.93 16.93 0 0 0 11.64-4l.26-.34.1-.12v-.17c0-.82-1-1-1.37-1.09a1.85 1.85 0 0 0-1.67.28 12.81 12.81 0 0 1-8.89 3 15.9 15.9 0 0 1-8.76-2.21 5 5 0 0 1-2.61-4.26c0-1.94 1.25-3.47 3.82-4.67a17.6 17.6 0 0 1 7.58-1.58c4.44 0 7.74 1.41 9.81 4.18a1.81 1.81 0 0 0 1.7.45c1.18-.16 1.35-.81 1.35-1.18l-.26-.67c-2.55-3.44-6.79-5.2-12.57-5.2zM98.28 37a.7.7 0 0 1-.67.73.71.71 0 0 1-.69-.73V.73a.71.71 0 0 1 .69-.73.7.7 0 0 1 .67.73zm14.85-5c-3.27.29-6.37-1.1-7.71-4.12a7.36 7.36 0 0 1 3.17-9.81c1.89-.9 3.08 0 3.35.58.43 1-.41 2.14-1.39 2.6s-1.84.81-1.76 1.83c.13 1.84 2.34 1.27 4 .5 2.51-1.24 4.21-4 3.08-6.51-1-2.21-4.14-4.09-8.46-2.13a9.71 9.71 0 0 0-4.65 12.69 8.85 8.85 0 0 0 8.93 5.37c1.26 0 3.33-.73 3.24-1s-.8 0-1.8.08m49.78 77.19h1a1.54 1.54 0 0 0 .49-.06.5.5 0 0 0 .28-.21.59.59 0 0 0 .09-.31.5.5 0 0 0-.18-.4.81.81 0 0 0-.56-.16h-1.1zm-.46 2v-3.47H164a2.12 2.12 0 0 1 .7.09.72.72 0 0 1 .38.33 1 1 0 0 1 .15.52.9.9 0 0 1-.24.63 1.3 1.3 0 0 1-.74.32.9.9 0 0 1 .28.17 2.59 2.59 0 0 1 .38.46l.6 1h-.57l-.46-.73-.33-.48a1.24 1.24 0 0 0-.24-.23.78.78 0 0 0-.21-.09h-.78v1.55h-.46"></path>
      <path d="M163.81 106a3.56 3.56 0 1 0 3.56 3.55 3.56 3.56 0 0 0-3.56-3.55m2.93 3.55a2.93 2.93 0 1 1-2.93-2.92 2.93 2.93 0 0 1 2.93 2.92m-109.69-.92c0 .23-.17.34-.58.34s-.55-.11-.57-.34c0-.42-.53-.72-1.48-.9-.2 0-.81-.1-1.82-.19-.73-.06-1.38-.09-2-.09a15.37 15.37 0 0 0-2.49.22c-1.37.24-2.06.57-2.06 1 0 .17.15.32.45.46a11.45 11.45 0 0 0 4.42.7q4.44.06 5.71 1.32a1.07 1.07 0 0 1 .35.74c0 .62-.59 1.11-1.76 1.47a14 14 0 0 1-4.2.63 17.21 17.21 0 0 1-2.6-.2c-2.3-.35-3.48-1-3.55-1.9 0-.21.18-.31.58-.31s.55.1.57.31c0 .48.53.84 1.45 1.08a11 11 0 0 0 1.82.28q1.05.09 1.83.09a13.81 13.81 0 0 0 2.6-.26c1.41-.29 2.11-.7 2.11-1.23 0-.18-.16-.36-.49-.55a9.55 9.55 0 0 0-4.42-.85c-2.93 0-4.82-.42-5.67-1.17a.89.89 0 0 1-.38-.61c0-.56.6-1 1.79-1.33a16.11 16.11 0 0 1 4.17-.54 18.68 18.68 0 0 1 2.59.2c2.32.32 3.51.87 3.59 1.63"></path>
      <path d="M57.05 108.63c0 .23-.17.34-.58.34s-.55-.11-.57-.34c0-.42-.53-.72-1.48-.9-.2 0-.81-.1-1.82-.19-.73-.06-1.38-.09-2-.09a15.37 15.37 0 0 0-2.49.22c-1.37.24-2.06.57-2.06 1 0 .17.15.32.45.46a11.45 11.45 0 0 0 4.42.7q4.44.06 5.71 1.32a1.07 1.07 0 0 1 .35.74c0 .62-.59 1.11-1.76 1.47a14 14 0 0 1-4.2.63 17.21 17.21 0 0 1-2.6-.2c-2.3-.35-3.48-1-3.55-1.9 0-.21.18-.31.58-.31s.55.1.57.31c0 .48.53.84 1.45 1.08a11 11 0 0 0 1.82.28q1.05.09 1.83.09a13.81 13.81 0 0 0 2.6-.26c1.41-.29 2.11-.7 2.11-1.23 0-.18-.16-.36-.49-.55a9.55 9.55 0 0 0-4.42-.85c-2.93 0-4.82-.42-5.67-1.17a.89.89 0 0 1-.38-.61c0-.56.6-1 1.79-1.33a16.11 16.11 0 0 1 4.17-.54 18.68 18.68 0 0 1 2.59.2c2.36.32 3.58.87 3.63 1.63zm15.19 1.82c0 1.26-.94 2.21-2.67 2.87a10.35 10.35 0 0 1-3.87.7 8.5 8.5 0 0 1-5.35-1.55v5.24c0 .24-.19.35-.57.35s-.58-.11-.58-.35v-10.52c0-.25.19-.36.58-.35s.57.13.57.35v1.2a8.32 8.32 0 0 1 5.35-1.51 11.17 11.17 0 0 1 3.87.7c1.72.65 2.61 1.61 2.67 2.87m-1.16 0c0-1.11-.76-1.93-2.17-2.45a8.73 8.73 0 0 0-3.21-.5 12.23 12.23 0 0 0-2 .14 5.84 5.84 0 0 0-1.92.79c-1 .6-1.48 1.27-1.45 2a2.74 2.74 0 0 0 2.15 2.45 9.46 9.46 0 0 0 3.2.5 9.69 9.69 0 0 0 3.21-.54c1.41-.51 2.13-1.31 2.17-2.41"></path>
      <path d="M72.24 110.45c0 1.26-.94 2.21-2.67 2.87a10.35 10.35 0 0 1-3.87.7 8.5 8.5 0 0 1-5.35-1.55v5.24c0 .24-.19.35-.57.35s-.58-.11-.58-.35v-10.52c0-.25.19-.36.58-.35s.57.13.57.35v1.2a8.32 8.32 0 0 1 5.35-1.51 11.17 11.17 0 0 1 3.87.7c1.72.65 2.61 1.61 2.67 2.87zm-1.16 0c0-1.11-.76-1.93-2.17-2.45a8.73 8.73 0 0 0-3.21-.5 12.23 12.23 0 0 0-2 .14 5.84 5.84 0 0 0-1.92.79c-1 .6-1.48 1.27-1.45 2a2.74 2.74 0 0 0 2.15 2.45 9.46 9.46 0 0 0 3.2.5 9.69 9.69 0 0 0 3.21-.54c1.43-.49 2.11-1.29 2.19-2.39zm14.17 3.3c0 .21-.19.31-.57.31s-.58-.1-.58-.31v-.62c-.23.11-.45.2-.64.27a12.3 12.3 0 0 1-4.26.66 16.14 16.14 0 0 1-3.44-.44c-1.83-.43-2.71-1.06-2.65-1.89s1-1.53 2.66-1.94a13.83 13.83 0 0 1 3.43-.39 11 11 0 0 1 4.94 1c0-1-.13-1.57-.49-1.83a7 7 0 0 0-4.15-1 12.75 12.75 0 0 0-3.45.41c-1.14.31-1.74.73-1.79 1.26 0 .23-.21.35-.57.35s-.6-.12-.58-.35c.06-.7.6-1.25 1.61-1.63a12.91 12.91 0 0 1 4.64-.7 11 11 0 0 1 4.29.77 2.57 2.57 0 0 1 1.51 1.17 7.11 7.11 0 0 1 .09 1.56zm-1.15-2c0-.61-.76-1.07-2.16-1.39a11.67 11.67 0 0 0-2.74-.36 13.42 13.42 0 0 0-2.76.36c-1.48.33-2.21.78-2.18 1.35a1.13 1.13 0 0 0 .67.85 4 4 0 0 0 1 .39 10.56 10.56 0 0 0 3.27.47 12.77 12.77 0 0 0 2.7-.31c1.41-.31 2.15-.77 2.2-1.4"></path>
      <path d="M85.25 113.75c0 .21-.19.31-.57.31s-.58-.1-.58-.31v-.62c-.23.11-.45.2-.64.27a12.3 12.3 0 0 1-4.26.66 16.14 16.14 0 0 1-3.44-.44c-1.83-.43-2.71-1.06-2.65-1.89s1-1.53 2.66-1.94a13.83 13.83 0 0 1 3.43-.39 11 11 0 0 1 4.94 1c0-1-.13-1.57-.49-1.83a7 7 0 0 0-4.15-1 12.75 12.75 0 0 0-3.45.41c-1.14.31-1.74.73-1.79 1.26 0 .23-.21.35-.57.35s-.6-.12-.58-.35c.06-.7.6-1.25 1.61-1.63a12.91 12.91 0 0 1 4.64-.7 11 11 0 0 1 4.29.77 2.57 2.57 0 0 1 1.51 1.17 7.11 7.11 0 0 1 .09 1.56zm-1.15-2c0-.61-.76-1.07-2.16-1.39a11.67 11.67 0 0 0-2.74-.36 13.42 13.42 0 0 0-2.76.36c-1.48.33-2.21.78-2.18 1.35a1.13 1.13 0 0 0 .67.85 4 4 0 0 0 1 .39 10.56 10.56 0 0 0 3.27.47 12.77 12.77 0 0 0 2.7-.31c1.41-.29 2.15-.75 2.2-1.38zm16.9-4.56c0 .21-.16.31-.5.31a16.07 16.07 0 0 0-3.59.27c-2.1.55-3.15 1.45-3.15 2.68v3.26c0 .21-.2.31-.6.31s-.58-.1-.58-.31v-6.52c0-.23.19-.35.58-.35s.6.12.6.35v1.2a5.88 5.88 0 0 1 2.06-1 17.49 17.49 0 0 1 4.68-.46c.34 0 .5.1.5.31"></path>
      <path d="M101 107.19c0 .21-.16.31-.5.31a16.07 16.07 0 0 0-3.59.27c-2.1.55-3.15 1.45-3.15 2.68v3.26c0 .21-.2.31-.6.31s-.58-.1-.58-.31v-6.52c0-.23.19-.35.58-.35s.6.12.6.35v1.2a5.88 5.88 0 0 1 2.06-1 17.49 17.49 0 0 1 4.68-.46c.29-.05.5.07.5.26zm13.54 3.09c0 .16-.19.25-.58.25H103.1a2.19 2.19 0 0 0 1.19 1.83 7.83 7.83 0 0 0 4.35 1.08 6.73 6.73 0 0 0 4.33-1.36.82.82 0 0 1 .64-.08c.3.06.45.15.45.28s0 .06-.1.11a8.09 8.09 0 0 1-5.32 1.71 9.6 9.6 0 0 1-5.15-1.32 2.74 2.74 0 0 1-1.61-2.22 2.17 2.17 0 0 1 .26-1c.91-1.82 2.86-2.72 5.86-2.72h1q4.34.25 5.51 3.23a.39.39 0 0 1 0 .14m-1.31-.37c-.77-1.56-2.37-2.34-4.81-2.37a8.55 8.55 0 0 0-2.76.45 3.37 3.37 0 0 0-2.46 1.92z"></path>
      <path d="M114.54 110.28c0 .16-.19.25-.58.25H103.1a2.19 2.19 0 0 0 1.19 1.83 7.83 7.83 0 0 0 4.35 1.08 6.73 6.73 0 0 0 4.33-1.36.82.82 0 0 1 .64-.08c.3.06.45.15.45.28s0 .06-.1.11a8.09 8.09 0 0 1-5.32 1.71 9.6 9.6 0 0 1-5.15-1.32 2.74 2.74 0 0 1-1.61-2.22 2.17 2.17 0 0 1 .26-1c.91-1.82 2.86-2.72 5.86-2.72h1q4.34.25 5.51 3.23a.39.39 0 0 1 .03.21zm-1.31-.37c-.77-1.56-2.37-2.34-4.81-2.37a8.55 8.55 0 0 0-2.76.45 3.37 3.37 0 0 0-2.46 1.92zm14.64-1.28c0 .23-.16.34-.58.34s-.55-.11-.57-.34q-.06-.63-1.47-.9c-.21 0-.81-.1-1.83-.19q-1.1-.09-2-.09a15.4 15.4 0 0 0-2.5.22c-1.37.24-2.06.57-2.06 1 0 .17.15.32.46.46a11.38 11.38 0 0 0 4.42.7q4.44.06 5.7 1.32a1 1 0 0 1 .35.74c0 .62-.59 1.11-1.76 1.47a14 14 0 0 1-4.2.63 17.21 17.21 0 0 1-2.6-.2c-2.3-.35-3.48-1-3.55-1.9 0-.21.18-.31.58-.31s.56.1.57.31c.05.48.53.84 1.45 1.08a11.17 11.17 0 0 0 1.82.28q1 .09 1.83.09a14 14 0 0 0 2.61-.26q2.1-.43 2.1-1.23c0-.18-.16-.36-.48-.55a9.58 9.58 0 0 0-4.42-.85c-2.94 0-4.83-.42-5.67-1.17a.88.88 0 0 1-.39-.61c0-.56.6-1 1.79-1.33a16.11 16.11 0 0 1 4.17-.54 18.57 18.57 0 0 1 2.59.2c2.32.32 3.52.87 3.59 1.63"></path>
      <path d="M127.87 108.63c0 .23-.16.34-.58.34s-.55-.11-.57-.34q-.06-.63-1.47-.9c-.21 0-.81-.1-1.83-.19q-1.1-.09-2-.09a15.4 15.4 0 0 0-2.5.22c-1.37.24-2.06.57-2.06 1 0 .17.15.32.46.46a11.38 11.38 0 0 0 4.42.7q4.44.06 5.7 1.32a1 1 0 0 1 .35.74c0 .62-.59 1.11-1.76 1.47a14 14 0 0 1-4.2.63 17.21 17.21 0 0 1-2.6-.2c-2.3-.35-3.48-1-3.55-1.9 0-.21.18-.31.58-.31s.56.1.57.31c.05.48.53.84 1.45 1.08a11.17 11.17 0 0 0 1.82.28q1 .09 1.83.09a14 14 0 0 0 2.61-.26q2.1-.43 2.1-1.23c0-.18-.16-.36-.48-.55a9.58 9.58 0 0 0-4.42-.85c-2.94 0-4.83-.42-5.67-1.17a.88.88 0 0 1-.39-.61c0-.56.6-1 1.79-1.33a16.11 16.11 0 0 1 4.17-.54 18.57 18.57 0 0 1 2.59.2c2.37.32 3.57.87 3.64 1.63zm14.27 1.82c-.06 1.26-.95 2.21-2.68 2.87a10.28 10.28 0 0 1-3.87.7 11.16 11.16 0 0 1-3.88-.72c-1.82-.67-2.7-1.62-2.65-2.85s.94-2.24 2.66-2.89a10.17 10.17 0 0 1 3.87-.68 11.23 11.23 0 0 1 3.87.7c1.73.64 2.62 1.6 2.68 2.87m-1.15 0a2.85 2.85 0 0 0-2.19-2.45 8.73 8.73 0 0 0-3.21-.5 10.18 10.18 0 0 0-3.18.6c-1.49.54-2.21 1.33-2.17 2.35a2.77 2.77 0 0 0 2.15 2.45 9.3 9.3 0 0 0 3.2.5 9.56 9.56 0 0 0 3.21-.54c1.39-.51 2.12-1.31 2.19-2.41"></path>
      <path d="M142.14 110.45c-.06 1.26-.95 2.21-2.68 2.87a10.28 10.28 0 0 1-3.87.7 11.16 11.16 0 0 1-3.88-.72c-1.82-.67-2.7-1.62-2.65-2.85s.94-2.24 2.66-2.89a10.17 10.17 0 0 1 3.87-.68 11.23 11.23 0 0 1 3.87.7c1.73.64 2.62 1.6 2.68 2.87zm-1.15 0a2.85 2.85 0 0 0-2.19-2.45 8.73 8.73 0 0 0-3.21-.5 10.18 10.18 0 0 0-3.18.6c-1.49.54-2.21 1.33-2.17 2.35a2.77 2.77 0 0 0 2.15 2.45 9.3 9.3 0 0 0 3.2.5 9.56 9.56 0 0 0 3.21-.54c1.39-.51 2.12-1.31 2.2-2.41zm10.76-3.26c0 .21-.17.31-.51.31a16.13 16.13 0 0 0-3.59.27c-2.1.55-3.14 1.45-3.14 2.68v3.26c0 .21-.2.31-.61.31s-.58-.1-.58-.31v-6.52c0-.23.2-.35.58-.35s.61.12.61.35v1.2a5.83 5.83 0 0 1 2.05-1 17.54 17.54 0 0 1 4.68-.46c.34 0 .51.1.51.31"></path>
      <path d="M151.75 107.19c0 .21-.17.31-.51.31a16.13 16.13 0 0 0-3.59.27c-2.1.55-3.14 1.45-3.14 2.68v3.26c0 .21-.2.31-.61.31s-.58-.1-.58-.31v-6.52c0-.23.2-.35.58-.35s.61.12.61.35v1.2a5.83 5.83 0 0 1 2.05-1 17.54 17.54 0 0 1 4.68-.46c.34-.05.51.07.51.26zm6.63-.04c0 .21-.18.31-.54.31h-4v6.18c0 .23-.19.35-.57.35s-.61-.12-.61-.35v-9.52c0-.21.2-.31.61-.31s.57.1.57.31v2.72h4c.36 0 .54.1.54.31"></path>
      <path d="M158.38 107.15c0 .21-.18.31-.54.31h-4v6.18c0 .23-.19.35-.57.35s-.61-.12-.61-.35v-9.52c0-.21.2-.31.61-.31s.57.1.57.31v2.72h4c.36 0 .54.1.54.31zm-84.16 46.78c0 .17-.13.28-.4.31a.57.57 0 0 1-.54-.12 5 5 0 0 0-4.28-1.84 7.34 7.34 0 0 0-3.24.69q-1.71.81-1.71 2.16a2.3 2.3 0 0 0 1.18 2 6.74 6.74 0 0 0 3.75 1 5.45 5.45 0 0 0 3.84-1.33c.1-.1.28-.12.54-.07s.42.14.42.27l-.08.11a6.82 6.82 0 0 1-4.7 1.62 9 9 0 0 1-2-.23q-4-.92-4-3.15a3.13 3.13 0 0 1 0-.5q.54-2.64 4.86-3.12a8.68 8.68 0 0 1 1.11-.08c2.37 0 4.07.72 5.11 2.14a.24.24 0 0 1 .06.14"></path>
      <path d="M74.22 153.93c0 .17-.13.28-.4.31a.57.57 0 0 1-.54-.12 5 5 0 0 0-4.28-1.84 7.34 7.34 0 0 0-3.24.69q-1.71.81-1.71 2.16a2.3 2.3 0 0 0 1.18 2 6.74 6.74 0 0 0 3.75 1 5.45 5.45 0 0 0 3.84-1.33c.1-.1.28-.12.54-.07s.42.14.42.27l-.08.11a6.82 6.82 0 0 1-4.7 1.62 9 9 0 0 1-2-.23q-4-.92-4-3.15a3.13 3.13 0 0 1 0-.5q.54-2.64 4.86-3.12a8.68 8.68 0 0 1 1.11-.08c2.37 0 4.07.72 5.11 2.14a.24.24 0 0 1 .14.14zm12.67 4.45c0 .21-.17.31-.52.31s-.5-.1-.5-.31v-.6l-.57.26a9.8 9.8 0 0 1-3.78.65 12.9 12.9 0 0 1-3-.44c-1.62-.41-2.4-1-2.35-1.84s.85-1.5 2.36-1.91a11.78 11.78 0 0 1 3-.38 9 9 0 0 1 4.37 1c0-.94-.1-1.54-.42-1.79a5.83 5.83 0 0 0-3.68-1 10.83 10.83 0 0 0-3.07.4c-1 .3-1.53.72-1.58 1.23 0 .23-.18.35-.5.35s-.53-.12-.52-.35c.06-.68.53-1.21 1.42-1.59a10.54 10.54 0 0 1 4.12-.69 9 9 0 0 1 3.81.76 2.29 2.29 0 0 1 1.33 1.14 6.94 6.94 0 0 1 .09 1.53zm-1-2c0-.6-.68-1-1.92-1.37a9.21 9.21 0 0 0-2.43-.31 11 11 0 0 0-2.44.35c-1.32.33-2 .77-1.94 1.33a1.1 1.1 0 0 0 .6.83 3.58 3.58 0 0 0 .88.38 8.92 8.92 0 0 0 2.9.46 10.8 10.8 0 0 0 2.4-.3c1.25-.3 1.9-.76 2-1.37"></path>
      <path d="M86.89 158.38c0 .21-.17.31-.52.31s-.5-.1-.5-.31v-.6l-.57.26a9.8 9.8 0 0 1-3.78.65 12.9 12.9 0 0 1-3-.44c-1.62-.41-2.4-1-2.35-1.84s.85-1.5 2.36-1.91a11.78 11.78 0 0 1 3-.38 9 9 0 0 1 4.37 1c0-.94-.1-1.54-.42-1.79a5.83 5.83 0 0 0-3.68-1 10.83 10.83 0 0 0-3.07.4c-1 .3-1.53.72-1.58 1.23 0 .23-.18.35-.5.35s-.53-.12-.52-.35c.06-.68.53-1.21 1.42-1.59a10.54 10.54 0 0 1 4.12-.69 9 9 0 0 1 3.81.76 2.29 2.29 0 0 1 1.33 1.14 6.94 6.94 0 0 1 .09 1.53zm-1-2c0-.6-.68-1-1.92-1.37a9.21 9.21 0 0 0-2.43-.31 11 11 0 0 0-2.44.35c-1.32.33-2 .77-1.94 1.33a1.1 1.1 0 0 0 .6.83 3.58 3.58 0 0 0 .88.38 8.92 8.92 0 0 0 2.9.46 10.8 10.8 0 0 0 2.4-.3c1.23-.27 1.88-.75 1.93-1.34zm14.49 1.96c0 .21-.17.31-.51.31s-.51-.1-.51-.31v-2.46a4.35 4.35 0 0 0-.14-1.41 3.2 3.2 0 0 0-1.37-1.41 6.47 6.47 0 0 0-3.27-.83 7.26 7.26 0 0 0-2 .29c-1.88.57-2.82 1.44-2.82 2.63v3.19c0 .21-.17.31-.5.31s-.52-.1-.52-.31V152c0-.23.17-.35.52-.35s.5.12.5.35v1.18a7.22 7.22 0 0 1 4.86-1.53 8.18 8.18 0 0 1 2.84.49c1.91.73 2.87 1.74 2.87 3.05z"></path>
      <path d="M100.38 158.34c0 .21-.17.31-.51.31s-.51-.1-.51-.31v-2.46a4.35 4.35 0 0 0-.14-1.41 3.2 3.2 0 0 0-1.37-1.41 6.47 6.47 0 0 0-3.27-.83 7.26 7.26 0 0 0-2 .29c-1.88.57-2.82 1.44-2.82 2.63v3.19c0 .21-.17.31-.5.31s-.52-.1-.52-.31V152c0-.23.17-.35.52-.35s.5.12.5.35v1.18a7.22 7.22 0 0 1 4.86-1.53 8.18 8.18 0 0 1 2.84.49c1.91.73 2.87 1.74 2.87 3.05zm13.1-4.41c0 .17-.13.28-.4.31a.56.56 0 0 1-.54-.12 5 5 0 0 0-4.25-1.84 7.4 7.4 0 0 0-3.24.69c-1.13.54-1.7 1.26-1.7 2.16a2.3 2.3 0 0 0 1.18 2 6.74 6.74 0 0 0 3.75 1 5.47 5.47 0 0 0 3.84-1.33c.1-.1.28-.12.54-.07s.42.14.42.27l-.08.11a6.82 6.82 0 0 1-4.75 1.67 9 9 0 0 1-2-.23c-2.62-.61-3.92-1.66-3.92-3.15a3.13 3.13 0 0 1 0-.5q.54-2.64 4.86-3.12a8.68 8.68 0 0 1 1.11-.08c2.36 0 4.07.72 5.11 2.14a.24.24 0 0 1 .06.14"></path>
      <path d="M113.48 153.93c0 .17-.13.28-.4.31a.56.56 0 0 1-.54-.12 5 5 0 0 0-4.25-1.84 7.4 7.4 0 0 0-3.24.69c-1.13.54-1.7 1.26-1.7 2.16a2.3 2.3 0 0 0 1.18 2 6.74 6.74 0 0 0 3.75 1 5.47 5.47 0 0 0 3.84-1.33c.1-.1.28-.12.54-.07s.42.14.42.27l-.08.11a6.82 6.82 0 0 1-4.75 1.67 9 9 0 0 1-2-.23c-2.62-.61-3.92-1.66-3.92-3.15a3.13 3.13 0 0 1 0-.5q.54-2.64 4.86-3.12a8.68 8.68 0 0 1 1.11-.08c2.36 0 4.07.72 5.11 2.14a.24.24 0 0 1 .07.09zm13.46 4.34c0 .23-.17.35-.51.35s-.52-.12-.52-.35v-1.14a5.26 5.26 0 0 1-1.84 1 9.36 9.36 0 0 1-3 .5 8.08 8.08 0 0 1-2.84-.5c-1.91-.71-2.87-1.71-2.87-3v-3.19c0-.23.17-.34.51-.34s.51.11.51.34v2.43a4.62 4.62 0 0 0 .14 1.45 3 3 0 0 0 1.33 1.4 6.71 6.71 0 0 0 3.27.8 6.81 6.81 0 0 0 2-.26c1.86-.56 2.78-1.43 2.78-2.63v-3.19c0-.23.17-.34.52-.34s.51.11.51.34z"></path>
      <path d="M126.94 158.27c0 .23-.17.35-.51.35s-.52-.12-.52-.35v-1.14a5.26 5.26 0 0 1-1.84 1 9.36 9.36 0 0 1-3 .5 8.08 8.08 0 0 1-2.84-.5c-1.91-.71-2.87-1.71-2.87-3v-3.19c0-.23.17-.34.51-.34s.51.11.51.34v2.43a4.62 4.62 0 0 0 .14 1.45 3 3 0 0 0 1.33 1.4 6.71 6.71 0 0 0 3.27.8 6.81 6.81 0 0 0 2-.26c1.86-.56 2.78-1.43 2.78-2.63v-3.19c0-.23.17-.34.52-.34s.51.11.51.34zm13.5.07c0 .21-.17.31-.52.31s-.5-.1-.5-.31v-2.46a4 4 0 0 0-.15-1.41 3.15 3.15 0 0 0-1.37-1.41 6.43 6.43 0 0 0-3.26-.83 7.27 7.27 0 0 0-2 .29c-1.88.57-2.81 1.44-2.81 2.63v3.19c0 .21-.17.31-.51.31s-.51-.1-.51-.31V152c0-.23.17-.35.51-.35s.51.12.51.35v1.18a7.19 7.19 0 0 1 4.86-1.53 8.13 8.13 0 0 1 2.83.49c1.92.73 2.88 1.74 2.88 3.05z"></path>
      <path d="M140.44 158.34c0 .21-.17.31-.52.31s-.5-.1-.5-.31v-2.46a4 4 0 0 0-.15-1.41 3.15 3.15 0 0 0-1.37-1.41 6.43 6.43 0 0 0-3.26-.83 7.27 7.27 0 0 0-2 .29c-1.88.57-2.81 1.44-2.81 2.63v3.19c0 .21-.17.31-.51.31s-.51-.1-.51-.31V152c0-.23.17-.35.51-.35s.51.12.51.35v1.18a7.19 7.19 0 0 1 4.86-1.53 8.13 8.13 0 0 1 2.83.49c1.92.73 2.88 1.74 2.88 3.05z"></path>
    </g>
  </symbol>

<symbol xmlns="http://www.w3.org/2000/svg" viewBox="0 0 325.18 155.09" id="Isla Mujeres Palace">
    <defs>
      <clipPath id="a" transform="translate(0 57.37)">
        <path d="M140.98 13.67l4.33-7.12L136.14 0l4.84 13.67z"></path>
      </clipPath>
      <clipPath id="b" transform="translate(0 57.37)">
        <path d="M169.11 17c21.18 1.33 40.07 5.34 54.64 11-11.49-7.64-30.75-13.12-53.41-14.94zM84 28c14.66-5.64 33.68-9.67 54.9-11l-1.37-4C114.88 14.84 95.68 20.34 84 28m56.7-15.19l1.39 4c3.84-.18 7.74-.28 11.71-.28s8.18.1 12.17.3l1.24-4a209.403 209.403 0 0 0-26.51-.02"></path>
      </clipPath>
      <clipPath id="c" transform="translate(0 57.37)">
        <path d="M162.51 6.59l4.32 7.34L171.7.04l-9.19 6.55z"></path>
      </clipPath>
      <clipPath id="d" transform="translate(0 57.37)">
        <path transform="rotate(-44.94 153.836 2.723)" d="M151.93.81h3.83v3.83h-3.83z"></path>
      </clipPath>
      <clipPath id="e" transform="translate(0 57.37)">
        <path transform="rotate(-44.98 150.055 6.569)" d="M148.14 4.67h3.83V8.5h-3.83z"></path>
      </clipPath>
      <clipPath id="f" transform="translate(0 57.37)">
        <path transform="rotate(-45.04 157.776 6.57)" d="M155.85 4.66h3.83v3.83h-3.83z"></path>
      </clipPath>
    </defs>
    <title>Isla Mujeres Palace</title>
    <path d="M140.98 71.03l4.33-7.11-9.17-6.55 4.84 13.66z"></path>
    <g clip-path="url(#a)">
      <path d="M129.323 63.85l11.657-11.046 11.164 11.78-11.657 11.047z"></path>
    </g>
    <path d="M169.11 74.37c21.18 1.33 40.07 5.34 54.64 11-11.49-7.64-30.75-13.12-53.41-14.94zM84 85.37c14.66-5.64 33.68-9.67 54.9-11l-1.37-4c-22.65 1.84-41.85 7.34-53.53 15m56.7-15.19l1.39 4c3.84-.18 7.74-.28 11.71-.28s8.18.1 12.17.3l1.24-4a209.403 209.403 0 0 0-26.51-.02"></path>
    <g clip-path="url(#b)">
      <path d="M76.244 77.128L157.606 0l73.902 77.959-81.362 77.129z"></path>
    </g>
    <path d="M162.51 63.96l4.32 7.34 4.87-13.89-9.19 6.55z"></path>
    <g clip-path="url(#c)">
      <path d="M155.584 63.994l11.773-11.157 11.281 11.904-11.773 11.157z"></path>
    </g>
    <path d="M151.135 60.085l2.712-2.705 2.705 2.71-2.711 2.706z"></path>
    <g clip-path="url(#d)">
      <path d="M148.43 59.943l5.55-5.264 5.265 5.55-5.551 5.265z"></path>
    </g>
    <path d="M147.358 63.949l2.709-2.708 2.707 2.71-2.709 2.707z"></path>
    <g clip-path="url(#e)">
      <path d="M144.649 63.804l5.55-5.264 5.265 5.551-5.551 5.264z"></path>
    </g>
    <path d="M155.063 63.943l2.707-2.71 2.71 2.706-2.706 2.71z"></path>
    <g clip-path="url(#f)">
      <path d="M152.352 63.805l5.553-5.262 5.262 5.553-5.553 5.262z"></path>
    </g>
    <path d="M0 99.17h3.55v24.74H0z"></path>
    <path d="M0 99.17h3.55v24.74H0z"></path>
    <path d="M0 99.17h3.55v24.74H0zm30.57 11.34c-2.45-1.46-4.71-1.49-7.46-1.49h-3.68c-2 0-4.18-.43-4.18-2.85 0-3.22 4.84-4 7.26-4 3.22 0 5.11.93 7.8 2.59l2-2.89a17 17 0 0 0-10.28-3.38 14.55 14.55 0 0 0-4.28.63c-3.15 1-6.17 3.45-6.17 7.06 0 4.25 3.52 6.27 7.37 6.34l3.71.06c3.65.07 4.87.13 6.17 1a3.29 3.29 0 0 1 1.67 2.79c0 3.58-4.9 4.45-7.65 4.45-4.32 0-7.17-.9-10.35-3.85l-2.5 2.4a16 16 0 0 0 12.35 5.1c4.84 0 11.7-1.79 11.7-7.79a7 7 0 0 0-3.48-6.17z"></path>
    <path d="M30.57 110.51c-2.45-1.46-4.71-1.49-7.46-1.49h-3.68c-2 0-4.18-.43-4.18-2.85 0-3.22 4.84-4 7.26-4 3.22 0 5.11.93 7.8 2.59l2-2.89a17 17 0 0 0-10.28-3.38 14.55 14.55 0 0 0-4.28.63c-3.15 1-6.17 3.45-6.17 7.06 0 4.25 3.52 6.27 7.37 6.34l3.71.06c3.65.07 4.87.13 6.17 1a3.29 3.29 0 0 1 1.67 2.79c0 3.58-4.9 4.45-7.65 4.45-4.32 0-7.17-.9-10.35-3.85l-2.5 2.4a16 16 0 0 0 12.35 5.1c4.84 0 11.7-1.79 11.7-7.79a7 7 0 0 0-3.48-6.17z"></path>
    <path d="M30.57 110.51c-2.45-1.46-4.71-1.49-7.46-1.49h-3.68c-2 0-4.18-.43-4.18-2.85 0-3.22 4.84-4 7.26-4 3.22 0 5.11.93 7.8 2.59l2-2.89a17 17 0 0 0-10.28-3.38 14.55 14.55 0 0 0-4.28.63c-3.15 1-6.17 3.45-6.17 7.06 0 4.25 3.52 6.27 7.37 6.34l3.71.06c3.65.07 4.87.13 6.17 1a3.29 3.29 0 0 1 1.67 2.79c0 3.58-4.9 4.45-7.65 4.45-4.32 0-7.17-.9-10.35-3.85l-2.5 2.4a16 16 0 0 0 12.35 5.1c4.84 0 11.7-1.79 11.7-7.79a7 7 0 0 0-3.48-6.17zm14.37-11.34h-3.62v24.74h18.67v-3.62H44.94V99.17z"></path>
    <path d="M44.94 99.17h-3.62v24.74h18.67v-3.62H44.94V99.17z"></path>
    <path d="M44.94 99.17h-3.62v24.74h18.67v-3.62H44.94V99.17zm30.13.04l-11.24 24.7h3.91l3.68-8.06h11.11l3.55 8.06h4l-11.03-24.7zm-2 13l3.93-8.63 3.91 8.62z"></path>
    <path d="M75.07 99.21l-11.24 24.7h3.91l3.68-8.06h11.11l3.55 8.06h4l-11.03-24.7zm-2 13l3.93-8.63 3.91 8.62zm38.57-5.61l8.56 15.29 8.79-15.29v17.31h3.61V99.17h-3.58l-8.82 15.42-8.52-15.42h-3.55v24.74h3.51V106.6z"></path>
    <path d="M111.64 106.6l8.56 15.29 8.79-15.29v17.31h3.61V99.17h-3.58l-8.82 15.42-8.52-15.42h-3.55v24.74h3.51V106.6z"></path>
    <path d="M111.64 106.6l8.56 15.29 8.79-15.29v17.31h3.61V99.17h-3.58l-8.82 15.42-8.52-15.42h-3.55v24.74h3.51V106.6zm41.15 17.77c3.31 0 7.26-.8 9.38-3.58 1.59-2.06 1.76-3.78 1.76-6.3V99.17h-3.55v15.36c0 4.87-2.49 6.26-7 6.26-2.09 0-4.74-.26-6.3-1.82-1.29-1.3-1.39-2.72-1.39-4.44V99.17h-3.58v15.36c0 2.18.13 3.94 1.39 5.8 1.99 2.98 5.84 4.04 9.29 4.04z"></path>
    <path d="M152.79 124.37c3.31 0 7.26-.8 9.38-3.58 1.59-2.06 1.76-3.78 1.76-6.3V99.17h-3.55v15.36c0 4.87-2.49 6.26-7 6.26-2.09 0-4.74-.26-6.3-1.82-1.29-1.3-1.39-2.72-1.39-4.44V99.17h-3.58v15.36c0 2.18.13 3.94 1.39 5.8 1.99 2.98 5.84 4.04 9.29 4.04z"></path>
    <path d="M152.79 124.37c3.31 0 7.26-.8 9.38-3.58 1.59-2.06 1.76-3.78 1.76-6.3V99.17h-3.55v15.36c0 4.87-2.49 6.26-7 6.26-2.09 0-4.74-.26-6.3-1.82-1.29-1.3-1.39-2.72-1.39-4.44V99.17h-3.58v15.36c0 2.18.13 3.94 1.39 5.8 1.99 2.98 5.84 4.04 9.29 4.04zm20.21-2.22a11.36 11.36 0 0 0 7.49 2.32c3.61 0 7-1.12 9.12-4.21 1.36-2 1.49-3.28 1.49-5.6V99.17h-3.6v15c0 2.39-.27 3.15-.8 4-1.42 2.12-3.91 2.75-6.33 2.75-4 0-5.57-1.16-7.23-4.71l-3.25 1.63a11.9 11.9 0 0 0 3.11 4.31z"></path>
    <path d="M173 122.15a11.36 11.36 0 0 0 7.49 2.32c3.61 0 7-1.12 9.12-4.21 1.36-2 1.49-3.28 1.49-5.6V99.17h-3.6v15c0 2.39-.27 3.15-.8 4-1.42 2.12-3.91 2.75-6.33 2.75-4 0-5.57-1.16-7.23-4.71l-3.25 1.63a11.9 11.9 0 0 0 3.11 4.31z"></path>
    <path d="M173 122.15a11.36 11.36 0 0 0 7.49 2.32c3.61 0 7-1.12 9.12-4.21 1.36-2 1.49-3.28 1.49-5.6V99.17h-3.6v15c0 2.39-.27 3.15-.8 4-1.42 2.12-3.91 2.75-6.33 2.75-4 0-5.57-1.16-7.23-4.71l-3.25 1.63a11.9 11.9 0 0 0 3.11 4.31zm31.25-9.28h8.43v-3.59h-8.43v-6.46H221v-3.65h-20.36v24.74h20.99v-3.62h-17.38v-7.42z"></path>
    <path d="M204.25 112.87h8.43v-3.59h-8.43v-6.46H221v-3.65h-20.36v24.74h20.99v-3.62h-17.38v-7.42z"></path>
    <path d="M204.25 112.87h8.43v-3.59h-8.43v-6.46H221v-3.65h-20.36v24.74h20.99v-3.62h-17.38v-7.42zm46.54-6.4c0-4.71-3.28-7.3-7.79-7.3h-14.66v24.74H232v-10.25h9.22l5 10.25h4.08l-5.14-10.38c3.51-.86 5.63-3.32 5.63-7.06zm-7.79 3.58h-11v-7.3h11c2.36 0 4.21.93 4.21 3.52s-1.76 3.78-4.21 3.78z"></path>
    <path d="M250.79 106.47c0-4.71-3.28-7.3-7.79-7.3h-14.66v24.74H232v-10.25h9.22l5 10.25h4.08l-5.14-10.38c3.51-.86 5.63-3.32 5.63-7.06zm-7.79 3.58h-11v-7.3h11c2.36 0 4.21.93 4.21 3.52s-1.76 3.78-4.21 3.78z"></path>
    <path d="M250.79 106.47c0-4.71-3.28-7.3-7.79-7.3h-14.66v24.74H232v-10.25h9.22l5 10.25h4.08l-5.14-10.38c3.51-.86 5.63-3.32 5.63-7.06zm-7.79 3.58h-11v-7.3h11c2.36 0 4.21.93 4.21 3.52s-1.76 3.78-4.21 3.78zm18.87 2.82h8.43v-3.59h-8.43v-6.46h16.75v-3.65h-20.36v24.74h20.99v-3.62h-17.38v-7.42z"></path>
    <path d="M261.87 112.87h8.43v-3.59h-8.43v-6.46h16.75v-3.65h-20.36v24.74h20.99v-3.62h-17.38v-7.42z"></path>
    <path d="M261.87 112.87h8.43v-3.59h-8.43v-6.46h16.75v-3.65h-20.36v24.74h20.99v-3.62h-17.38v-7.42zm42.78-2.36c-2.46-1.46-4.72-1.49-7.47-1.49h-3.68c-1.95 0-4.18-.43-4.18-2.85 0-3.22 4.85-4 7.27-4 3.21 0 5.1.93 7.79 2.59l2-2.89a16.92 16.92 0 0 0-10.28-3.38 14.53 14.53 0 0 0-4.27.63c-3.16 1-6.17 3.45-6.17 7.06 0 4.25 3.51 6.27 7.36 6.34l3.71.06c3.65.07 4.88.13 6.17 1a3.28 3.28 0 0 1 1.68 2.79c0 3.58-4.91 4.45-7.66 4.45-4.31 0-7.16-.9-10.35-3.85l-2.52 2.4a16 16 0 0 0 12.37 5.07c4.84 0 11.71-1.79 11.71-7.79a7 7 0 0 0-3.48-6.14z"></path>
    <path d="M304.65 110.51c-2.46-1.46-4.72-1.49-7.47-1.49h-3.68c-1.95 0-4.18-.43-4.18-2.85 0-3.22 4.85-4 7.27-4 3.21 0 5.1.93 7.79 2.59l2-2.89a16.92 16.92 0 0 0-10.28-3.38 14.53 14.53 0 0 0-4.27.63c-3.16 1-6.17 3.45-6.17 7.06 0 4.25 3.51 6.27 7.36 6.34l3.71.06c3.65.07 4.88.13 6.17 1a3.28 3.28 0 0 1 1.68 2.79c0 3.58-4.91 4.45-7.66 4.45-4.31 0-7.16-.9-10.35-3.85l-2.52 2.4a16 16 0 0 0 12.37 5.07c4.84 0 11.71-1.79 11.71-7.79a7 7 0 0 0-3.48-6.14z"></path>
    <path d="M304.65 110.51c-2.46-1.46-4.72-1.49-7.47-1.49h-3.68c-1.95 0-4.18-.43-4.18-2.85 0-3.22 4.85-4 7.27-4 3.21 0 5.1.93 7.79 2.59l2-2.89a16.92 16.92 0 0 0-10.28-3.38 14.53 14.53 0 0 0-4.27.63c-3.16 1-6.17 3.45-6.17 7.06 0 4.25 3.51 6.27 7.36 6.34l3.71.06c3.65.07 4.88.13 6.17 1a3.28 3.28 0 0 1 1.68 2.79c0 3.58-4.91 4.45-7.66 4.45-4.31 0-7.16-.9-10.35-3.85l-2.52 2.4a16 16 0 0 0 12.37 5.07c4.84 0 11.71-1.79 11.71-7.79a7 7 0 0 0-3.48-6.14zm-196.89 23.52a5 5 0 0 0-3.76-1.17H93v18.9h1.8v-8.09h8.37a7.91 7.91 0 0 0 4.26-.92 5.52 5.52 0 0 0 2.11-4.44 5.63 5.63 0 0 0-1.78-4.28zm-1.42 7.34a6 6 0 0 1-3.17.54H94.8v-7.32h9.2c2.46 0 3.78 1.19 3.78 3.67a3.59 3.59 0 0 1-1.44 3.11z"></path>
    <path d="M107.76 134.03a5 5 0 0 0-3.76-1.17H93v18.9h1.8v-8.09h8.37a7.91 7.91 0 0 0 4.26-.92 5.52 5.52 0 0 0 2.11-4.44 5.63 5.63 0 0 0-1.78-4.28zm-1.42 7.34a6 6 0 0 1-3.17.54H94.8v-7.32h9.2c2.46 0 3.78 1.19 3.78 3.67a3.59 3.59 0 0 1-1.44 3.11z"></path>
    <path d="M107.76 134.03a5 5 0 0 0-3.76-1.17H93v18.9h1.8v-8.09h8.37a7.91 7.91 0 0 0 4.26-.92 5.52 5.52 0 0 0 2.11-4.44 5.63 5.63 0 0 0-1.78-4.28zm-1.42 7.34a6 6 0 0 1-3.17.54H94.8v-7.32h9.2c2.46 0 3.78 1.19 3.78 3.67a3.59 3.59 0 0 1-1.44 3.11zm13.26-8.53l-9.26 18.92h1.93l3.32-6.75h9.69l3.33 6.75h1.92l-9.18-18.92zm-3.14 10.45l4-8.27 4 8.27z"></path>
    <path d="M119.6 132.84l-9.26 18.92h1.93l3.32-6.75h9.69l3.33 6.75h1.92l-9.18-18.92zm-3.14 10.45l4-8.27 4 8.27z"></path>
    <path d="M119.6 132.84l-9.26 18.92h1.93l3.32-6.75h9.69l3.33 6.75h1.92l-9.18-18.92zm-3.14 10.45l4-8.27 4 8.27zm32.01 6.72h-12.35v-17.15h-1.72v18.9h14.07v-1.75z"></path>
    <path d="M148.47 150.01h-12.35v-17.15h-1.72v18.9h14.07v-1.75z"></path>
    <path d="M148.47 150.01h-12.35v-17.15h-1.72v18.9h14.07v-1.75zm13.74-17.17h-1.75l-9.26 18.92h1.93l3.32-6.75h9.69l3.33 6.75h1.92zm-4.89 10.45l4-8.27 4 8.27z"></path>
    <path d="M162.21 132.84h-1.75l-9.26 18.92h1.93l3.32-6.75h9.69l3.33 6.75h1.92zm-4.89 10.45l4-8.27 4 8.27z"></path>
    <path d="M162.21 132.84h-1.75l-9.26 18.92h1.93l3.32-6.75h9.69l3.33 6.75h1.92zm-4.89 10.45l4-8.27 4 8.27zm34.01 3.75a11.43 11.43 0 0 1-7.94 3.4c-4.66 0-8.57-3.32-8.57-8.12 0-5 3.88-8.17 8.73-8.17a10.09 10.09 0 0 1 7.73 3.2l1.17-1.24a11.68 11.68 0 0 0-9.06-3.68c-5.75 0-10.29 4-10.29 9.89a9.86 9.86 0 0 0 10.19 9.87 13 13 0 0 0 9.24-3.88z"></path>
    <path d="M191.33 147.04a11.43 11.43 0 0 1-7.94 3.4c-4.66 0-8.57-3.32-8.57-8.12 0-5 3.88-8.17 8.73-8.17a10.09 10.09 0 0 1 7.73 3.2l1.17-1.24a11.68 11.68 0 0 0-9.06-3.68c-5.75 0-10.29 4-10.29 9.89a9.86 9.86 0 0 0 10.19 9.87 13 13 0 0 0 9.24-3.88z"></path>
    <path d="M191.33 147.04a11.43 11.43 0 0 1-7.94 3.4c-4.66 0-8.57-3.32-8.57-8.12 0-5 3.88-8.17 8.73-8.17a10.09 10.09 0 0 1 7.73 3.2l1.17-1.24a11.68 11.68 0 0 0-9.06-3.68c-5.75 0-10.29 4-10.29 9.89a9.86 9.86 0 0 0 10.19 9.87 13 13 0 0 0 9.24-3.88zm7.69-4.19h7.59v-1.72h-7.59v-6.5h13.9v-1.77h-15.6v18.9h16.21v-1.73h-14.51v-7.18z"></path>
    <path d="M199.02 142.85h7.59v-1.72h-7.59v-6.5h13.9v-1.77h-15.6v18.9h16.21v-1.73h-14.51v-7.18z"></path>
    <path d="M199.02 142.85h7.59v-1.72h-7.59v-6.5h13.9v-1.77h-15.6v18.9h16.21v-1.73h-14.51v-7.18zm119.14-30.32a7 7 0 1 1 7-7 7 7 0 0 1-7 7zm0-13a6 6 0 1 0 6 6 6 6 0 0 0-6-6.04zm3 6.11a2.25 2.25 0 0 1-1 .38l1.91 3h-1.21l-1.88-3h-3v3H315v-7.44h4.53a2.73 2.73 0 0 1 1.53.31 2.27 2.27 0 0 1 1.07 1.91 2.34 2.34 0 0 1-.96 1.8zm-.66-2.81a2.06 2.06 0 0 0-1.21-.2H316v2.44h3.47a1.73 1.73 0 0 0 1.06-.22 1.25 1.25 0 0 0 .49-1 1.11 1.11 0 0 0-.51-1.06z"></path>
  </symbol>

<symbol xmlns="http://www.w3.org/2000/svg" viewBox="0 0 281.04 161.66" id="Cozumel Palace">
    <defs>
      <clipPath id="a" transform="translate(0 59.8)">
        <path d="M120.97 14.25l4.51-7.42L115.92 0l5.05 14.25z"></path>
      </clipPath>
      <clipPath id="b" transform="translate(0 59.8)">
        <path d="M150.3 17.72c22.07 1.39 41.76 5.57 56.95 11.41-12-7.9-32-13.62-55.68-15.52zM61.58 29.13c15.27-5.88 35.1-10.07 57.22-11.44l-1.43-4.1c-23.62 1.88-43.63 7.62-55.8 15.54m59.1-15.78l1.45 4.16q6-.29 12.2-.29c4.29 0 8.53.11 12.69.31l1.29-4.15q-6.83-.45-14-.45c-4.65 0-9.21.15-13.65.42"></path>
      </clipPath>
      <clipPath id="c" transform="translate(0 59.8)">
        <path d="M143.41 6.87l4.51 7.65L152.99.04l-9.58 6.83z"></path>
      </clipPath>
      <clipPath id="d" transform="translate(0 59.8)">
        <path transform="rotate(-44.95 134.382 2.84)" d="M132.38.85h3.99v3.99h-3.99z"></path>
      </clipPath>
      <clipPath id="e" transform="translate(0 59.8)">
        <path transform="rotate(-44.97 130.425 6.851)" d="M128.43 4.86h3.99v3.99h-3.99z"></path>
      </clipPath>
      <clipPath id="f" transform="translate(0 59.8)">
        <path transform="rotate(-45.03 138.477 6.856)" d="M136.47 4.86h3.99v3.99h-3.99z"></path>
      </clipPath>
    </defs>
    <title>Cozumel Palace</title>
    <path d="M120.97 74.05l4.51-7.42-9.56-6.83 5.05 14.25z"></path>
    <g clip-path="url(#a)">
      <path d="M108.8 66.538l12.15-11.518 11.64 12.28-12.148 11.516z"></path>
    </g>
    <path d="M150.3 77.52c22.07 1.39 41.76 5.57 56.95 11.41-12-7.9-32-13.62-55.68-15.52zM61.58 88.93c15.27-5.88 35.1-10.07 57.22-11.44l-1.43-4.1c-23.62 1.88-43.63 7.62-55.8 15.54m59.1-15.78l1.45 4.16q6-.29 12.2-.29c4.29 0 8.53.11 12.69.31l1.29-4.15q-6.83-.45-14-.45c-4.65 0-9.21.15-13.65.42"></path>
    <g clip-path="url(#b)">
      <path d="M53.494 80.396L138.304 0l77.032 81.26-84.81 80.397z"></path>
    </g>
    <path d="M143.41 66.67l4.51 7.65 5.07-14.48-9.58 6.83z"></path>
    <g clip-path="url(#c)">
      <path d="M136.188 66.694L148.46 55.06l11.757 12.403-12.272 11.634z"></path>
    </g>
    <path d="M131.56 62.647l2.823-2.82 2.82 2.825-2.825 2.818z"></path>
    <g clip-path="url(#d)">
      <path d="M128.728 62.48l5.791-5.49 5.49 5.792-5.791 5.49z"></path>
    </g>
    <path d="M127.606 66.652l2.823-2.82 2.82 2.823-2.823 2.82z"></path>
    <g clip-path="url(#e)">
      <path d="M124.792 66.499l5.79-5.491 5.491 5.79-5.79 5.491z"></path>
    </g>
    <path d="M135.647 66.666l2.82-2.823 2.822 2.82-2.82 2.822z"></path>
    <g clip-path="url(#f)">
      <path d="M132.82 66.508l5.792-5.489 5.482 5.785-5.793 5.49z"></path>
    </g>
    <path d="M10 117.65c-3.94 0-7.52-2.35-7.52-6.61 0-4 3.13-6.62 7-6.62a9.8 9.8 0 0 1 6.42 2.65l1.9-1.62a12.07 12.07 0 0 0-8.46-3.59A9 9 0 0 0 0 111c0 5.61 4.47 9.23 9.87 9.23a10.37 10.37 0 0 0 8.23-3.57l-1.7-1.86a8.16 8.16 0 0 1-6.4 2.85z"></path>
    <path d="M10 117.65c-3.94 0-7.52-2.35-7.52-6.61 0-4 3.13-6.62 7-6.62a9.8 9.8 0 0 1 6.42 2.65l1.9-1.62a12.07 12.07 0 0 0-8.46-3.59A9 9 0 0 0 0 111c0 5.61 4.47 9.23 9.87 9.23a10.37 10.37 0 0 0 8.23-3.57l-1.7-1.86a8.16 8.16 0 0 1-6.4 2.85zm21-15.85a9.24 9.24 0 1 0 9.42 9.31A9.26 9.26 0 0 0 31 101.8zm0 15.89a6.76 6.76 0 0 1-7-6.6 6.64 6.64 0 0 1 7-6.74 6.66 6.66 0 0 1 6.91 6.58 6.78 6.78 0 0 1-6.91 6.72z"></path>
    <path d="M31 101.8a9.24 9.24 0 1 0 9.42 9.31A9.26 9.26 0 0 0 31 101.8zm0 15.89a6.76 6.76 0 0 1-7-6.6 6.64 6.64 0 0 1 7-6.74 6.66 6.66 0 0 1 6.91 6.58 6.78 6.78 0 0 1-6.91 6.72zm26.97-13.67l-.91-1.74H43.69v2.58h10.19L42.7 118.05l.82 1.76h14.59v-2.61H46.74l11.23-13.18z"></path>
    <path d="M57.97 104.02l-.91-1.74H43.69v2.58h10.19L42.7 118.05l.82 1.76h14.59v-2.61H46.74l11.23-13.18zm17.35 9.14c0 3.45-1.76 4.44-5 4.44-1.48 0-3.36-.19-4.47-1.29a4 4 0 0 1-1-3.15v-10.88h-2.5v10.88a6.57 6.57 0 0 0 1 4.11c1.43 2.12 4.16 2.89 6.6 2.89s5.15-.56 6.65-2.53a6.32 6.32 0 0 0 1.25-4.47v-10.88h-2.53z"></path>
    <path d="M75.32 113.16c0 3.45-1.76 4.44-5 4.44-1.48 0-3.36-.19-4.47-1.29a4 4 0 0 1-1-3.15v-10.88h-2.5v10.88a6.57 6.57 0 0 0 1 4.11c1.43 2.12 4.16 2.89 6.6 2.89s5.15-.56 6.65-2.53a6.32 6.32 0 0 0 1.25-4.47v-10.88h-2.53zm17.81.04l-6.04-10.92h-2.51v17.53h2.49v-12.27l6.06 10.84 6.23-10.84v12.27h2.56v-17.53h-2.54l-6.25 10.92z"></path>
    <path d="M93.13 113.2l-6.04-10.92h-2.51v17.53h2.49v-12.27l6.06 10.84 6.23-10.84v12.27h2.56v-17.53h-2.54l-6.25 10.92zm18.11-1.22h5.97v-2.54h-5.97v-4.58h11.87v-2.58h-14.43v17.53h14.87v-2.56h-12.31v-5.27z"></path>
    <path d="M111.24 111.98h5.97v-2.54h-5.97v-4.58h11.87v-2.58h-14.43v17.53h14.87v-2.56h-12.31v-5.27zm19.74-9.7h-2.56v17.53h13.23v-2.56h-10.67v-14.97z"></path>
    <path d="M130.98 102.28h-2.56v17.53h13.23v-2.56h-10.67v-14.97zm33.65 0h-10.17v17.52H157v-7.44h7.61a4.79 4.79 0 0 0 5.13-5.08c.02-3.15-2.01-5-5.11-5zm0 7.49H157v-4.97h7.61c1.69 0 2.59.71 2.59 2.44s-.92 2.56-2.57 2.56z"></path>
    <path d="M164.63 102.28h-10.17v17.52H157v-7.44h7.61a4.79 4.79 0 0 0 5.13-5.08c.02-3.15-2.01-5-5.11-5zm0 7.49H157v-4.97h7.61c1.69 0 2.59.71 2.59 2.44s-.92 2.56-2.57 2.56zm13.99-7.47l-8 17.51h2.77l2.61-5.71h7.87l2.56 5.7h2.86l-7.84-17.5zm-1.41 9.21l2.78-6.1 2.77 6.1z"></path>
    <path d="M178.62 102.3l-8 17.51h2.77l2.61-5.71h7.87l2.56 5.7h2.86l-7.84-17.5zm-1.41 9.21l2.78-6.1 2.77 6.1zm18.99-9.23h-2.57v17.53h13.24v-2.56H196.2v-14.97z"></path>
    <path d="M196.2 102.28h-2.57v17.53h13.24v-2.56H196.2v-14.97zm21.35.02l-8 17.51h2.78l2.67-5.71h7.87l2.48 5.7h2.87l-7.85-17.5zm-1.41 9.21l2.77-6.1 2.78 6.1z"></path>
    <path d="M217.55 102.3l-8 17.51h2.78l2.67-5.71h7.87l2.48 5.7h2.87l-7.85-17.5zm-1.41 9.21l2.77-6.1 2.78 6.1zm24.45 6.14c-4 0-7.52-2.35-7.52-6.61 0-4 3.12-6.62 7-6.62a9.8 9.8 0 0 1 6.41 2.65l1.9-1.62a12.07 12.07 0 0 0-8.46-3.59 9 9 0 0 0-9.35 9.14c0 5.61 4.47 9.23 9.87 9.23a10.37 10.37 0 0 0 8.23-3.57L247 114.8a8.14 8.14 0 0 1-6.41 2.85z"></path>
    <path d="M240.59 117.65c-4 0-7.52-2.35-7.52-6.61 0-4 3.12-6.62 7-6.62a9.8 9.8 0 0 1 6.41 2.65l1.9-1.62a12.07 12.07 0 0 0-8.46-3.59 9 9 0 0 0-9.35 9.14c0 5.61 4.47 9.23 9.87 9.23a10.37 10.37 0 0 0 8.23-3.57L247 114.8a8.14 8.14 0 0 1-6.41 2.85zm15.43-5.67h5.97v-2.54h-5.97v-4.58h11.87v-2.58h-14.42v17.53h14.87v-2.56h-12.32v-5.27z"></path>
    <path d="M256.02 111.98h5.97v-2.54h-5.97v-4.58h11.87v-2.58h-14.42v17.53h14.87v-2.56h-12.32v-5.27zm20.05-.18a5 5 0 1 1 5-5 5 5 0 0 1-5 5zm0-9.24a4.27 4.27 0 1 0 4.27 4.27 4.28 4.28 0 0 0-4.27-4.24zm2.13 4.33a1.63 1.63 0 0 1-.73.27l1.36 2.15H278l-1.33-2.12h-2.09v2.12h-.76v-5.24H277a2 2 0 0 1 1.09.22 1.62 1.62 0 0 1 .75 1.36 1.65 1.65 0 0 1-.64 1.27zm-.47-2a1.49 1.49 0 0 0-.86-.14h-2.32v1.73H277a1.22 1.22 0 0 0 .75-.16.9.9 0 0 0 .35-.74.79.79 0 0 0-.37-.65z"></path>
  </symbol>
  <symbol xmlns="http://www.w3.org/2000/svg" viewBox="0 0 232.82 68.16" id="Moon Palace Nizuk">
    <title>Moon Palace Nizuk</title>
    <path d="M99.85 9.91l3.14-5.16L96.33 0l3.52 9.91z"></path>
    <path d="M120.25 12.33c15.35 1 29.05 3.87 39.62 7.94-8.34-5.49-22.27-9.47-38.74-10.79zm-61.72 7.94c10.63-4.09 24.42-7 39.82-8l-1-2.85C80.92 10.76 67 14.75 58.53 20.27m41.11-11l1 2.89q4.18-.19 8.49-.2c3 0 5.93.08 8.83.22l.9-2.89Q114.12 9 109.14 9c-3.23 0-6.41.1-9.5.29"></path>
    <path d="M115.46 4.78l3.13 5.32L122.12.03l-6.66 4.75zm-8.262-2.805l1.968-1.963 1.964 1.968-1.968 1.963zm-2.728 2.797l1.959-1.958 1.958 1.96-1.96 1.957zm5.584.004l1.964-1.967 1.967 1.965-1.964 1.967zM227.73 40.53a5.09 5.09 0 1 1 5.09-5.08 5.08 5.08 0 0 1-5.09 5.08zm0-9.45a4.37 4.37 0 1 0 4.37 4.37 4.38 4.38 0 0 0-4.37-4.37zm2.18 4.43a1.59 1.59 0 0 1-.74.27l1.38 2.2h-.87l-1.36-2.17h-2.15V38h-.77v-5.41h3.28a1.93 1.93 0 0 1 1.11.23 1.63 1.63 0 0 1 .78 1.38 1.7 1.7 0 0 1-.66 1.31zm-.48-2c-.19-.12-.36-.14-.88-.14h-2.38v1.76h2.51a1.29 1.29 0 0 0 .77-.15.92.92 0 0 0 .36-.76.81.81 0 0 0-.38-.75zM2.65 35.6v12.65H0V30.18h2.6l6.17 11.23 6.17-11.23h2.6v18.07h-2.6V35.6L8.77 46.71zm30.56 13.04a10.21 10.21 0 0 1-3.7-.68 9.64 9.64 0 0 1-3.08-1.9 8.85 8.85 0 0 1-2.12-3 9.85 9.85 0 0 1 0-7.73 9 9 0 0 1 2.12-3 9.5 9.5 0 0 1 3.08-1.91 10.41 10.41 0 0 1 7.4 0A9.69 9.69 0 0 1 40 32.37a9.08 9.08 0 0 1 2.12 3A9.41 9.41 0 0 1 40 46.05 9.72 9.72 0 0 1 36.91 48a10.17 10.17 0 0 1-3.7.64zm0-2.61a7.3 7.3 0 0 0 2.84-.54 6.74 6.74 0 0 0 3.72-3.64 6.66 6.66 0 0 0 .53-2.64 6.73 6.73 0 0 0-.53-2.64 6.89 6.89 0 0 0-1.47-2.16 7 7 0 0 0-2.25-1.47 7.61 7.61 0 0 0-5.68 0 7 7 0 0 0-2.25 1.47 6.7 6.7 0 0 0-1.46 2.16 6.56 6.56 0 0 0-.54 2.64 6.49 6.49 0 0 0 .54 2.64A6.75 6.75 0 0 0 28.12 44a7 7 0 0 0 2.25 1.47 7.3 7.3 0 0 0 2.84.53zm23.98 2.61a10.21 10.21 0 0 1-3.7-.68 9.64 9.64 0 0 1-3.08-1.9 8.85 8.85 0 0 1-2.12-3 9.85 9.85 0 0 1 0-7.73 9 9 0 0 1 2.12-3 9.5 9.5 0 0 1 3.08-1.91 10.41 10.41 0 0 1 7.4 0A9.64 9.64 0 0 1 64 32.37a9 9 0 0 1 2.13 3 9.94 9.94 0 0 1 0 7.72 9.16 9.16 0 0 1-2.13 3A9.67 9.67 0 0 1 60.89 48a10.21 10.21 0 0 1-3.7.64zm0-2.61a7.3 7.3 0 0 0 2.81-.54 6.74 6.74 0 0 0 3.72-3.64 6.66 6.66 0 0 0 .53-2.64 6.73 6.73 0 0 0-.53-2.64 6.89 6.89 0 0 0-1.47-2.16A7 7 0 0 0 60 32.94a7.61 7.61 0 0 0-5.68 0 7 7 0 0 0-2.25 1.47 6.89 6.89 0 0 0-1.47 2.16 6.73 6.73 0 0 0-.53 2.64 6.66 6.66 0 0 0 .53 2.64 6.74 6.74 0 0 0 3.72 3.64 7.3 7.3 0 0 0 2.87.51zm18.17-15.85l10.75 13.73V30.18h2.6v18.07h-2.6l-10.7-13.74v13.74h-2.6V30.18zm39.77 0a6.47 6.47 0 0 1 2 .3 4.73 4.73 0 0 1 1.69.93A4.39 4.39 0 0 1 120 33a5.27 5.27 0 0 1 .43 2.22 6.26 6.26 0 0 1-.43 2.46 4.4 4.4 0 0 1-2.83 2.58 6.94 6.94 0 0 1-2 .29h-7.84v7.73h-2.6v-18.1zm-7.84 2.6v5.13h7.84a3.34 3.34 0 0 0 1.44-.26 2 2 0 0 0 .8-.67 2.07 2.07 0 0 0 .34-.86 7.39 7.39 0 0 0 .07-.91 2.41 2.41 0 0 0-.66-1.73 2.62 2.62 0 0 0-2-.7zm34.16 15.47h-2.94l-2.58-6h-8.08l-2.67 6h-2.85l8.17-18.07h2.9zm-9.55-14.84l-2.84 6.29h5.69zm13.67-3.23h2.6v15.47h11v2.6h-13.6zm33.57 18.07h-2.94l-2.58-6h-8.07l-2.68 6H160l8.17-18.07h2.89zm-9.54-14.84l-2.85 6.29h5.69zM200.08 45a15.1 15.1 0 0 1-1.41 1.35 8.2 8.2 0 0 1-1.8 1.16 10.76 10.76 0 0 1-2.46.81 16.39 16.39 0 0 1-3.37.3 9.65 9.65 0 0 1-3.55-.68 9.77 9.77 0 0 1-3.05-1.89 9.23 9.23 0 0 1-2.12-2.93 8.85 8.85 0 0 1-.79-3.78 9.78 9.78 0 0 1 .72-3.75 9.4 9.4 0 0 1 8.75-5.8 11.08 11.08 0 0 1 3.33.46 13.39 13.39 0 0 1 2.6 1.07 11 11 0 0 1 1.82 1.23c.47.41.82.72 1 .93l-1.95 1.66-.89-.71a9.09 9.09 0 0 0-1.43-.92 12.38 12.38 0 0 0-2-.78 8.93 8.93 0 0 0-2.52-.34 7.28 7.28 0 0 0-2.51.46 6.92 6.92 0 0 0-2.2 1.34 6.65 6.65 0 0 0-1.58 2.18 7.06 7.06 0 0 0-.6 3A6.45 6.45 0 0 0 186 43.9a7.2 7.2 0 0 0 2.37 1.54 8.25 8.25 0 0 0 3.26.59 9 9 0 0 0 2.56-.32 9.59 9.59 0 0 0 1.92-.77 7 7 0 0 0 1.37-.94 7.87 7.87 0 0 0 .83-.86zm19.57-14.82v2.6h-12.19v4.75h6.14v2.6h-6.14v5.52h12.65v2.6h-15.25V30.18zM89.41 67.9H87.9l-8.33-10.18V67.9H78V55.41h1.51l8.34 10.3v-10.3h1.51zm6.53 0h-1.51V55.41h1.51zm14.13 0H99.53l-.65-1.27 8.91-9.76h-8.26v-1.46h9.77l.65 1.21-8.95 9.81h9zm14.29-4.85a6.26 6.26 0 0 1-.36 2.15 3.93 3.93 0 0 1-1 1.6 4.64 4.64 0 0 1-1.77 1 8.36 8.36 0 0 1-2.55.35 8.61 8.61 0 0 1-2.6-.35 4.39 4.39 0 0 1-1.76-1 4 4 0 0 1-1-1.6 6.8 6.8 0 0 1-.31-2.15v-7.64h1.51v7.64a3.35 3.35 0 0 0 1.06 2.81 6.16 6.16 0 0 0 6.21 0 3.35 3.35 0 0 0 1.06-2.81v-7.64h1.51zm17.25 2.63l-.75.67a6.91 6.91 0 0 1-1.2.82 7.77 7.77 0 0 1-1.77.7 9.41 9.41 0 0 1-2.45.29 8.19 8.19 0 0 1-2.58-.41 6.91 6.91 0 0 1-2.29-1.22 6.08 6.08 0 0 1-2.27-4.88 6.09 6.09 0 0 1 2.23-4.87 6.87 6.87 0 0 1 2.23-1.23 7.82 7.82 0 0 1 2.45-.41 8.55 8.55 0 0 1 2.38.3 9.9 9.9 0 0 1 1.81.71 8.24 8.24 0 0 1 1.27.82l.75.65-1.08 1-.72-.57a8.1 8.1 0 0 0-2.57-1.23 6.82 6.82 0 0 0-1.8-.23A5.73 5.73 0 0 0 133 57a5.59 5.59 0 0 0-1.72 1.13 5 5 0 0 0-1.09 1.6 4.62 4.62 0 0 0 0 3.74 4.86 4.86 0 0 0 1.12 1.62 5.34 5.34 0 0 0 1.78 1.14 6.25 6.25 0 0 0 2.39.44 7.36 7.36 0 0 0 2-.25 7 7 0 0 0 1.45-.6 6.42 6.42 0 0 0 1-.71l.62-.57z"></path>
  </symbol>

  <symbol xmlns="http://www.w3.org/2000/svg" viewBox="0 0 357.94 172.19" id="Moon Palace Cancun">
    <defs>
      <clipPath id="a" transform="translate(0 63.7)">
        <path d="M154.91 15.18l4.81-7.9L149.53 0l5.38 15.18z"></path>
      </clipPath>
      <clipPath id="b" transform="translate(0 63.7)">
        <path d="M186.14 18.87c23.52 1.48 44.49 5.94 60.67 12.16-12.76-8.41-34.1-14.5-59.31-16.52zM91.65 31c16.28-6.26 37.39-10.73 61-12.18l-1.53-4.37c-25.15 2-46.47 8.11-59.43 16.55m62.91-16.78l1.54 4.44q6.39-.32 13-.31 6.86 0 13.51.33l1.35-4.43c-4.84-.32-9.82-.48-14.89-.48s-9.81.16-14.54.45"></path>
      </clipPath>
      <clipPath id="c" transform="translate(0 63.7)">
        <path d="M178.81 7.32l4.8 8.15 5.4-15.43-10.2 7.28z"></path>
      </clipPath>
      <clipPath id="d" transform="translate(0 63.7)">
        <path transform="rotate(-44.94 169.167 3.033)" d="M167.06.9h4.25v4.25h-4.25z"></path>
      </clipPath>
      <clipPath id="e" transform="translate(0 63.7)">
        <path transform="rotate(-44.98 164.992 7.292)" d="M162.85 5.18h4.25v4.25h-4.25z"></path>
      </clipPath>
      <clipPath id="f" transform="translate(0 63.7)">
        <path transform="rotate(-45.04 173.554 7.304)" d="M171.41 5.18h4.25v4.25h-4.25z"></path>
      </clipPath>
    </defs>
    <title>Moon Palace Cancun</title>
    <path d="M154.91 78.87l4.81-7.9-10.19-7.27 5.38 15.17z"></path>
    <g clip-path="url(#a)">
      <path d="M141.95 70.864l12.94-12.266 12.397 13.077-12.94 12.267z"></path>
    </g>
    <path d="M186.14 82.57c23.52 1.48 44.49 5.94 60.67 12.16-12.76-8.41-34.1-14.5-59.31-16.52zM91.65 94.7c16.28-6.26 37.39-10.73 61-12.18l-1.53-4.37c-25.15 2-46.47 8.11-59.43 16.55m62.91-16.78l1.54 4.44q6.39-.32 13-.31 6.86 0 13.51.33l1.35-4.43c-4.84-.32-9.82-.48-14.89-.48s-9.81.16-14.54.45"></path>
    <g clip-path="url(#b)">
      <path d="M83.033 85.635l90.34-85.64 82.054 86.559-90.34 85.64z"></path>
    </g>
    <path d="M178.81 71.01l4.8 8.15 5.4-15.42-10.2 7.27z"></path>
    <g clip-path="url(#c)">
      <path d="M171.12 71.049l13.073-12.388 12.526 13.217-13.072 12.389z"></path>
    </g>
    <path d="M166.169 66.712l3.008-3.002 3.002 3.008-3.008 3.002z"></path>
    <g clip-path="url(#d)">
      <path d="M163.894 66.24l6.198-5.857 5.865 6.205-6.198 5.858z"></path>
    </g>
    <path d="M161.984 71.012l3.006-3.004 3.004 3.006-3.006 3.004z"></path>
    <g clip-path="url(#e)">
      <path d="M159.684 70.56l6.205-5.865 5.865 6.205-6.205 5.865z"></path>
    </g>
    <path d="M170.535 71.01l3.004-3.007 3.007 3.003-3.003 3.008z"></path>
    <g clip-path="url(#f)">
      <path d="M167.499 70.198l6.175-5.84 5.834 6.169-6.176 5.84z"></path>
    </g>
    <path d="M27.17 137.57v-27.46H23.2l-9.8 17.12-9.46-17.12H0v27.46h3.9v-19.21l9.5 16.97 9.76-16.97v19.21h4.01z"></path>
    <path d="M27.17 137.57v-27.46H23.2l-9.8 17.12-9.46-17.12H0v27.46h3.9v-19.21l9.5 16.97 9.76-16.97v19.21h4.01zm38.46-13.69a14.58 14.58 0 0 0-14.76-14.58c-7.88 0-14.8 6.08-14.8 14.14a14.6 14.6 0 0 0 14.76 14.8c7.95 0 14.8-6.26 14.8-14.36zm-14.76 10.31c-5.75 0-10.87-4.34-10.87-10.27 0-6.22 4.72-10.57 10.83-10.57 5.86 0 10.83 4.27 10.83 10.31a10.61 10.61 0 0 1-10.79 10.53z"></path>
    <path d="M65.63 123.88a14.58 14.58 0 0 0-14.76-14.58c-7.88 0-14.8 6.08-14.8 14.14a14.6 14.6 0 0 0 14.76 14.8c7.95 0 14.8-6.26 14.8-14.36zm-14.76 10.31c-5.75 0-10.87-4.34-10.87-10.27 0-6.22 4.72-10.57 10.83-10.57 5.86 0 10.83 4.27 10.83 10.31a10.61 10.61 0 0 1-10.79 10.53zM87.6 109.3c-7.88 0-14.8 6.08-14.8 14.14a14.6 14.6 0 0 0 14.76 14.8c8 0 14.8-6.26 14.8-14.36A14.58 14.58 0 0 0 87.6 109.3zm0 24.89c-5.75 0-10.87-4.34-10.87-10.27 0-6.19 4.72-10.57 10.83-10.57 5.85 0 10.82 4.27 10.82 10.31a10.6 10.6 0 0 1-10.78 10.53z"></path>
    <path d="M87.6 109.3c-7.88 0-14.8 6.08-14.8 14.14a14.6 14.6 0 0 0 14.76 14.8c8 0 14.8-6.26 14.8-14.36A14.58 14.58 0 0 0 87.6 109.3zm0 24.89c-5.75 0-10.87-4.34-10.87-10.27 0-6.19 4.72-10.57 10.83-10.57 5.85 0 10.82 4.27 10.82 10.31a10.6 10.6 0 0 1-10.78 10.53zm27.63-17.53l16.57 20.91h3.98v-27.46h-4.05v20.99l-16.53-20.99h-3.91v27.46h3.94v-20.91z"></path>
    <path d="M115.23 116.66l16.57 20.91h3.98v-27.46h-4.05v20.99l-16.53-20.99h-3.91v27.46h3.94v-20.91zm49.23 9.25h11.93c4.82 0 8-3.09 8-8s-3.16-7.85-8-7.85h-15.94v27.52h4zm0-11.78h11.93c2.65 0 4.05 1.1 4.05 3.83s-1.48 3.9-4.05 3.9h-11.93z"></path>
    <path d="M164.46 125.91h11.93c4.82 0 8-3.09 8-8s-3.16-7.85-8-7.85h-15.94v27.52h4zm0-11.78h11.93c2.65 0 4.05 1.1 4.05 3.83s-1.48 3.9-4.05 3.9h-11.93zm29.8 14.5h12.33l3.94 8.95H215l-12.27-27.43h-4.42l-12.48 27.43h4.34zm6.18-13.62l4.35 9.57h-8.69z"></path>
    <path d="M194.26 128.63h12.33l3.94 8.95H215l-12.27-27.43h-4.42l-12.48 27.43h4.34zm6.18-13.62l4.35 9.57h-8.69zm42.11 18.55h-16.71v-23.45h-4.02v27.46h20.73v-4.01z"></path>
    <path d="M242.55 133.56h-16.71v-23.45h-4.02v27.46h20.73v-4.01zm33.45 4.02l-12.3-27.43h-4.42l-12.47 27.43h4.35l4.08-8.95h12.34l3.93 8.95zm-18.93-13l4.35-9.57 4.34 9.57z"></path>
    <path d="M276 137.58l-12.3-27.43h-4.42l-12.47 27.43h4.35l4.08-8.95h12.34l3.93 8.95zm-18.93-13l4.35-9.57 4.34 9.57zm50.93 8.06l-2.65-2.87c-3 3-5.67 4.42-10 4.42-6.18 0-11.78-3.68-11.78-10.34 0-6.23 4.9-10.38 10.94-10.38 3.93 0 7.1 1.69 10 4.15l3-2.54a19 19 0 0 0-13.25-5.63c-8.22 0-14.66 6-14.66 14.32 0 8.8 7 14.47 15.46 14.47 5.11 0 9.64-1.69 12.94-5.6z"></path>
    <path d="M308 132.64l-2.65-2.87c-3 3-5.67 4.42-10 4.42-6.18 0-11.78-3.68-11.78-10.34 0-6.23 4.9-10.38 10.94-10.38 3.93 0 7.1 1.69 10 4.15l3-2.54a19 19 0 0 0-13.25-5.63c-8.22 0-14.66 6-14.66 14.32 0 8.8 7 14.47 15.46 14.47 5.11 0 9.64-1.69 12.94-5.6zm11.57-7.33h9.35v-3.97h-9.35v-7.18h18.6v-4.05h-22.61v27.46h23.3v-4.01h-19.29v-8.25z"></path>
    <path d="M319.57 125.31h9.35v-3.97h-9.35v-7.18h18.6v-4.05h-22.61v27.46h23.3v-4.01h-19.29v-8.25zm30.58.45a7.79 7.79 0 1 1 7.79-7.79 7.79 7.79 0 0 1-7.79 7.79zm0-14.48a6.69 6.69 0 1 0 6.69 6.69 6.7 6.7 0 0 0-6.69-6.69zm3.35 6.79a2.65 2.65 0 0 1-1.14.42l2.12 3.37h-1.34l-2.08-3.33h-3.29v3.33h-1.18v-8.26h5a2.94 2.94 0 0 1 1.7.35 2.5 2.5 0 0 1 1.18 2.12 2.61 2.61 0 0 1-.97 2zm-.74-3.12c-.28-.18-.54-.22-1.34-.22h-3.65v2.7h3.85a2 2 0 0 0 1.18-.24 1.41 1.41 0 0 0 .54-1.16 1.22 1.22 0 0 0-.58-1.08zm-231.4 48.95c-1.82 2-4.1 3.85-9.63 3.85a10.04 10.04 0 1 1 0-20.08 13.24 13.24 0 0 1 9.37 3.93l-2.1 1.77a11 11 0 0 0-7.27-2.92 7.21 7.21 0 0 0-7.34 7.41c0 3.45 2.77 7.12 8 7.12a8.92 8.92 0 0 0 7.11-3.08zm22.72 3.44H141l-2.74-6.34h-8.66l-2.85 6.34h-3l8.71-19.26h3.08zm-10.16-15.82l-3 6.7H137zm17.33-3.44l11.45 14.62h.05v-14.62h2.77v19.26h-2.77L151.3 152.7h-.05v14.64h-2.78v-19.26zm40 15.82c-1.82 2-4.11 3.85-9.63 3.85a10.025 10.025 0 1 1-.05-20.05 13.26 13.26 0 0 1 9.37 3.93l-2.08 1.77a10.93 10.93 0 0 0-7.27-2.92 7.21 7.21 0 0 0-7.34 7.41c0 3.45 2.77 7.12 8 7.12a8.94 8.94 0 0 0 7.11-3.08zm22.64-3.83c0 3.65-1.38 7.68-8.44 7.68s-8.45-4.05-8.45-7.68v-12h2.77v12c0 2.83 1.18 4.91 5.68 4.91s5.67-2.08 5.67-4.91v-12h2.77zm10.58-11.99l11.45 14.62h.08v-14.62h2.77v19.26H236l-11.48-14.64h-.05v14.64h-2.77v-19.26z"></path>
  </symbol>

  

  
</svg>